<svg width="342" height="139" viewBox="0 0 342 139" fill="none" xmlns="http://www.w3.org/2000/svg">
<path d="M122.83 24.6233L128.206 21.0713H125.422C124.67 21.0713 123.966 20.8713 123.31 20.4713C122.654 20.0553 122.126 19.5113 121.726 18.8393C121.342 18.1673 121.15 17.4633 121.15 16.7273C121.15 15.9433 121.342 15.2153 121.726 14.5433C122.11 13.8713 122.638 13.3433 123.31 12.9593C123.982 12.5753 124.702 12.3833 125.47 12.3833H129.838V21.7673L123.694 25.8713L122.83 24.6233ZM128.35 19.5833V13.8713H125.47C124.974 13.8713 124.502 13.9993 124.054 14.2553C123.622 14.5113 123.278 14.8633 123.022 15.3113C122.766 15.7433 122.638 16.2073 122.638 16.7033C122.638 17.2313 122.766 17.7113 123.022 18.1433C123.278 18.5753 123.622 18.9273 124.054 19.1993C124.502 19.4553 124.974 19.5833 125.47 19.5833H128.35ZM129.214 19.5833H131.014L131.278 20.3273L131.014 21.0713H129.214V19.5833ZM130.752 20.3273L130.992 19.5833H131.016C131.8 19.5833 132.464 19.3113 133.008 18.7673C133.568 18.2073 133.848 17.5273 133.848 16.7273V13.2233L135.36 12.8393V16.7273C135.36 17.5273 135.16 18.2553 134.76 18.9113C134.376 19.5673 133.848 20.0953 133.176 20.4953C132.52 20.8793 131.8 21.0713 131.016 21.0713H130.968L130.752 20.3273ZM133.416 8.83129H135.216V10.3433H133.416V8.83129ZM137.852 7.03129L139.388 6.67129V21.0713H137.852V7.03129ZM140.915 24.5993L142.811 23.3753V13.2233L144.323 12.8393V24.1673L141.779 25.8713L140.915 24.5993ZM140.627 9.07129H143.651V6.83929L145.187 7.27129V10.4393H140.627V9.07129ZM148.189 24.6233L153.565 21.0713H150.781C150.029 21.0713 149.325 20.8713 148.669 20.4713C148.013 20.0553 147.485 19.5113 147.085 18.8393C146.701 18.1673 146.509 17.4633 146.509 16.7273C146.509 15.9433 146.701 15.2153 147.085 14.5433C147.469 13.8713 147.997 13.3433 148.669 12.9593C149.341 12.5753 150.061 12.3833 150.829 12.3833H155.197V21.7673L149.053 25.8713L148.189 24.6233ZM153.709 19.5833V13.8713H150.829C150.333 13.8713 149.861 13.9993 149.413 14.2553C148.981 14.5113 148.637 14.8633 148.381 15.3113C148.125 15.7433 147.997 16.2073 147.997 16.7033C147.997 17.2313 148.125 17.7113 148.381 18.1433C148.637 18.5753 148.981 18.9273 149.413 19.1993C149.861 19.4553 150.333 19.5833 150.829 19.5833H153.709ZM156.478 24.5993L158.374 23.3753V13.2233L159.886 12.8393V24.1673L157.342 25.8713L156.478 24.5993ZM170.72 21.0713C169.92 21.0713 169.184 20.8793 168.512 20.4953C167.856 20.0953 167.328 19.5673 166.928 18.9113C166.544 18.2553 166.352 17.5273 166.352 16.7273V13.2233L167.888 12.8393V16.7273C167.888 17.5273 168.16 18.2073 168.704 18.7673C169.264 19.3113 169.936 19.5833 170.72 19.5833H181.184C181.984 19.5833 182.656 19.3113 183.2 18.7673C183.76 18.2073 184.04 17.5273 184.04 16.7273V13.2233L185.552 12.8393V16.7273C185.552 17.5273 185.352 18.2553 184.952 18.9113C184.568 19.5673 184.04 20.0953 183.368 20.4953C182.712 20.8793 181.984 21.0713 181.184 21.0713H170.72ZM173.672 13.2473H178.184V14.6633H173.672V13.2473ZM186.759 24.5993L188.655 23.3753V13.2233L190.167 12.8393V24.1673L187.623 25.8713L186.759 24.5993ZM197.344 21.0713C196.56 21.0713 195.832 20.8793 195.16 20.4953C194.504 20.0953 193.976 19.5673 193.576 18.9113C193.192 18.2393 193 17.5113 193 16.7273V7.03129L194.512 6.67129V16.7273C194.512 17.5273 194.784 18.2073 195.328 18.7673C195.888 19.3113 196.56 19.5833 197.344 19.5833L197.608 20.3273L197.344 21.0713ZM197.08 20.3273L197.32 19.5833H197.344C198.128 19.5833 198.792 19.3113 199.336 18.7673C199.896 18.2073 200.176 17.5273 200.176 16.7273V12.3833H204.52C205.32 12.3833 206.048 12.5833 206.704 12.9833C207.376 13.3673 207.904 13.8953 208.288 14.5673C208.688 15.2233 208.888 15.9433 208.888 16.7273C208.888 17.5273 208.688 18.2553 208.288 18.9113C207.904 19.5673 207.376 20.0953 206.704 20.4953C206.048 20.8793 205.32 21.0713 204.52 21.0713C203.784 21.0713 203.096 20.8953 202.456 20.5433C201.832 20.1753 201.328 19.7033 200.944 19.1273C200.544 19.7033 200.032 20.1753 199.408 20.5433C198.784 20.8953 198.096 21.0713 197.344 21.0713H197.32L197.08 20.3273ZM204.52 19.5833C205.32 19.5833 205.992 19.3113 206.536 18.7673C207.08 18.2073 207.352 17.5273 207.352 16.7273C207.352 15.9433 207.08 15.2793 206.536 14.7353C205.992 14.1753 205.32 13.8953 204.52 13.8953H201.712V16.7273C201.712 17.5273 201.984 18.2073 202.528 18.7673C203.072 19.3113 203.736 19.5833 204.52 19.5833ZM211.72 21.0713C210.984 21.0713 210.296 20.8953 209.656 20.5433C209.016 20.1753 208.512 19.7033 208.144 19.1273L207.664 17.3753L208.888 16.7273C208.888 17.5273 209.16 18.2073 209.704 18.7673C210.248 19.3113 210.92 19.5833 211.72 19.5833L211.96 20.3273L211.72 21.0713ZM211.447 20.3273L211.711 19.5833H213.679V16.7273C213.679 15.9433 213.879 15.2233 214.279 14.5673C214.679 13.8953 215.207 13.3673 215.863 12.9833C216.535 12.5993 217.271 12.4073 218.071 12.4073H220.591V13.8953H218.071C217.271 13.8953 216.599 14.1753 216.055 14.7353C215.511 15.2793 215.239 15.9433 215.239 16.7273V19.5833H221.071V21.0713H211.711L211.447 20.3273Z" fill="white"/>
<path d="M20.4735 65.4513C19.9002 65.4513 19.4068 65.3513 18.9935 65.1513C18.5802 64.938 18.2468 64.618 17.9935 64.1913C17.7535 63.7513 17.6002 63.1913 17.5335 62.5113L18.2735 62.3113C18.2735 62.9913 18.4535 63.518 18.8135 63.8913C19.1735 64.2513 19.7268 64.4313 20.4735 64.4313C20.9935 64.4313 21.4335 64.2513 21.7935 63.8913C22.1668 63.518 22.3535 63.078 22.3535 62.5713V60.0713H23.3535V62.5713C23.3535 63.078 23.5402 63.518 23.9135 63.8913C24.2868 64.2513 24.7268 64.4313 25.2335 64.4313C25.7535 64.4313 26.1935 64.2513 26.5535 63.8913C26.9268 63.518 27.1135 63.078 27.1135 62.5713V59.8313L28.1135 59.5713V62.5713C28.1135 63.0913 27.9802 63.5713 27.7135 64.0113C27.4602 64.4513 27.1135 64.8046 26.6735 65.0713C26.2335 65.3246 25.7535 65.4513 25.2335 65.4513C24.8068 65.4513 24.3735 65.3246 23.9335 65.0713C23.4935 64.818 23.1335 64.5246 22.8535 64.1913C22.5868 64.578 22.2468 64.8846 21.8335 65.1113C21.4202 65.338 20.9668 65.4513 20.4735 65.4513ZM17.2735 59.6713L18.2935 59.4113V71.0713H17.2735V59.6713ZM33.918 71.0713C33.278 71.0713 32.6914 70.918 32.158 70.6113C31.6247 70.2913 31.198 69.8646 30.878 69.3313C30.5714 68.7846 30.418 68.198 30.418 67.5713V59.2513L31.438 58.9913V67.5713C31.438 68.2646 31.678 68.8513 32.158 69.3313C32.6514 69.8113 33.238 70.0513 33.918 70.0513H36.398V58.9913H37.418V71.0713H33.918ZM46.7696 71.0713C46.1296 71.0713 45.5429 70.918 45.0096 70.6113C44.4763 70.2913 44.0496 69.8646 43.7296 69.3313C43.4229 68.798 43.2696 68.2113 43.2696 67.5713V64.7313L44.2896 64.4713V67.5713C44.2896 68.2646 44.5296 68.8513 45.0096 69.3313C45.5029 69.8113 46.0896 70.0513 46.7696 70.0513H57.7496C58.4296 70.0513 59.0096 69.8113 59.4896 69.3313C59.9696 68.8513 60.2096 68.2646 60.2096 67.5713C60.2096 66.878 59.9696 66.2913 59.4896 65.8113C59.0096 65.3313 58.4296 65.0913 57.7496 65.0913H47.9296V64.0513L54.9296 59.5513L55.5096 60.4313L49.7296 64.0713H57.7496C58.3763 64.0713 58.9563 64.2313 59.4896 64.5513C60.0363 64.858 60.4629 65.278 60.7696 65.8113C61.0896 66.3446 61.2496 66.9313 61.2496 67.5713C61.2496 68.2113 61.0896 68.798 60.7696 69.3313C60.4629 69.8646 60.0363 70.2913 59.4896 70.6113C58.9563 70.918 58.3763 71.0713 57.7496 71.0713H46.7696ZM63.3673 70.0513H64.3673V59.5713L65.3873 59.2913V70.0513H67.8873C68.5673 70.0513 69.1473 69.8113 69.6273 69.3313C70.1206 68.8513 70.3673 68.2646 70.3673 67.5713V59.4513L71.3873 59.1913V67.5713C71.3873 68.198 71.2273 68.7846 70.9073 69.3313C70.6006 69.8646 70.1806 70.2913 69.6473 70.6113C69.1139 70.918 68.5273 71.0713 67.8873 71.0713H63.3673V70.0513ZM73.8473 71.0713C73.2339 71.0713 72.6606 70.918 72.1273 70.6113C71.6073 70.3046 71.1873 69.898 70.8673 69.3913L70.6273 68.4713L70.8673 67.7113L71.3873 67.5713C71.3873 68.2646 71.6273 68.8513 72.1073 69.3313C72.5873 69.8113 73.1673 70.0513 73.8473 70.0513L74.0273 70.5713L73.8473 71.0713ZM73.6618 70.5713L73.8218 70.0513H73.8418C74.5218 70.0513 75.1018 69.8113 75.5818 69.3313C76.0751 68.8513 76.3218 68.2646 76.3218 67.5713V64.7313L77.3418 64.4713V67.5713C77.3418 68.2113 77.1818 68.798 76.8618 69.3313C76.5551 69.8646 76.1285 70.2913 75.5818 70.6113C75.0485 70.918 74.4685 71.0713 73.8418 71.0713H73.8018L73.6618 70.5713ZM74.8818 74.0913H72.4018V73.0913H76.0218V75.6113L74.8818 75.9313V74.0913ZM82.4688 69.9713L82.8288 67.6713H83.2088V69.9713H83.7488V71.0713H82.4688V69.9713ZM86.5899 67.5713C86.5899 66.9313 86.7433 66.3446 87.0499 65.8113C87.3699 65.278 87.7966 64.858 88.3299 64.5513C88.8766 64.2313 89.4699 64.0713 90.1099 64.0713H93.6299C94.2566 64.0713 94.8366 64.2313 95.3699 64.5513C95.9166 64.858 96.3433 65.278 96.6499 65.8113C96.9699 66.3446 97.1299 66.9313 97.1299 67.5713C97.1299 68.2113 96.9699 68.798 96.6499 69.3313C96.3433 69.8646 95.9166 70.2913 95.3699 70.6113C94.8366 70.918 94.2566 71.0713 93.6299 71.0713C92.9899 71.0713 92.3966 70.918 91.8499 70.6113C91.3166 70.2913 90.8899 69.8646 90.5699 69.3313C90.2633 68.798 90.1099 68.2113 90.1099 67.5713V65.0913C89.4299 65.0913 88.8433 65.3313 88.3499 65.8113C87.8699 66.2913 87.6299 66.878 87.6299 67.5713V75.3713L86.5899 75.6513V67.5713ZM93.6299 70.0513C94.3099 70.0513 94.8899 69.8113 95.3699 69.3313C95.8633 68.8513 96.1099 68.2646 96.1099 67.5713C96.1099 66.878 95.8633 66.2913 95.3699 65.8113C94.8899 65.3313 94.3099 65.0913 93.6299 65.0913H91.1499V67.5713C91.1499 68.2646 91.3899 68.8513 91.8699 69.3313C92.3499 69.8113 92.9366 70.0513 93.6299 70.0513ZM99.6099 71.0713C98.9966 71.0713 98.4233 70.918 97.8899 70.6113C97.3699 70.3046 96.9499 69.898 96.6299 69.3913L96.4299 68.5713L96.6499 67.5713H97.1499C97.1499 68.2646 97.3899 68.8513 97.8699 69.3313C98.3499 69.8113 98.9299 70.0513 99.6099 70.0513L99.7899 70.5713L99.6099 71.0713ZM99.4235 70.5713L99.6035 70.0513H107.064V67.5713C107.064 66.878 106.817 66.2913 106.324 65.8113C105.844 65.3313 105.264 65.0913 104.584 65.0913H101.504L101.744 64.0713H104.584C105.224 64.0713 105.81 64.2313 106.344 64.5513C106.89 64.858 107.317 65.278 107.624 65.8113C107.944 66.3446 108.104 66.9313 108.104 67.5713V71.0713H99.6035L99.4235 70.5713ZM107.624 70.0513H109.444L109.624 70.5713L109.444 71.0713H107.664L107.624 70.0513ZM103.344 72.9913H104.724V74.1113H103.344V72.9913ZM109.267 70.5713L109.427 70.0513H109.447C110.127 70.0513 110.707 69.8113 111.187 69.3313C111.681 68.8513 111.927 68.2646 111.927 67.5713V64.7313L112.927 64.4713V67.5713C112.927 68.2646 113.167 68.8513 113.647 69.3313C114.141 69.8113 114.734 70.0513 115.427 70.0513L115.607 70.5713L115.427 71.0713C114.801 71.0713 114.221 70.918 113.687 70.6113C113.154 70.3046 112.734 69.898 112.427 69.3913C112.107 69.898 111.681 70.3046 111.147 70.6113C110.627 70.918 110.061 71.0713 109.447 71.0713H109.427L109.267 70.5713ZM111.407 61.2713H112.787V62.3913H111.407V61.2713ZM115.244 70.5713L115.424 70.0513H117.124C117.577 70.0513 117.99 69.9446 118.364 69.7313C118.75 69.5046 119.057 69.2046 119.284 68.8313C119.51 68.4446 119.624 68.0246 119.624 67.5713V64.7313L120.624 64.4713V67.5713C120.624 68.2113 120.464 68.798 120.144 69.3313C119.837 69.8646 119.41 70.2913 118.864 70.6113C118.33 70.918 117.75 71.0713 117.124 71.0713H115.424L115.244 70.5713ZM118.104 74.0913H115.624V73.0913H119.244V75.6113L118.104 75.9313V74.0913ZM129.25 71.0713C128.61 71.0713 128.023 70.918 127.49 70.6113C126.957 70.2913 126.53 69.8646 126.21 69.3313C125.903 68.798 125.75 68.2113 125.75 67.5713V64.7313L126.77 64.4713V67.5713C126.77 68.2646 127.01 68.8513 127.49 69.3313C127.983 69.8113 128.57 70.0513 129.25 70.0513H140.23C140.91 70.0513 141.49 69.8113 141.97 69.3313C142.45 68.8513 142.69 68.2646 142.69 67.5713C142.69 66.878 142.45 66.2913 141.97 65.8113C141.49 65.3313 140.91 65.0913 140.23 65.0913H130.41V64.0513L137.41 59.5513L137.99 60.4313L132.21 64.0713H140.23C140.857 64.0713 141.437 64.2313 141.97 64.5513C142.517 64.858 142.943 65.278 143.25 65.8113C143.57 66.3446 143.73 66.9313 143.73 67.5713C143.73 68.2113 143.57 68.798 143.25 69.3313C142.943 69.8646 142.517 70.2913 141.97 70.6113C141.437 70.918 140.857 71.0713 140.23 71.0713H129.25ZM146.19 71.0713C145.577 71.0713 145.003 70.918 144.47 70.6113C143.95 70.3046 143.53 69.898 143.21 69.3913V67.9313L143.73 67.5713C143.73 68.2646 143.97 68.8513 144.45 69.3313C144.93 69.8113 145.51 70.0513 146.19 70.0513L146.37 70.5713L146.19 71.0713ZM146.006 70.5713L146.186 70.0513H148.246C147.926 69.7313 147.672 69.358 147.486 68.9313C147.299 68.5046 147.206 68.0513 147.206 67.5713C147.206 67.0913 147.299 66.638 147.486 66.2113C147.672 65.7846 147.926 65.4113 148.246 65.0913H147.166V64.0713H155.686C156.326 64.0713 156.912 64.2313 157.446 64.5513C157.979 64.858 158.399 65.2846 158.706 65.8313C159.026 66.3646 159.186 66.9446 159.186 67.5713C159.186 68.2113 159.026 68.798 158.706 69.3313C158.399 69.8646 157.979 70.2913 157.446 70.6113C156.912 70.918 156.326 71.0713 155.686 71.0713H146.186L146.006 70.5713ZM150.706 70.0513C151.386 70.0513 151.966 69.8113 152.446 69.3313C152.939 68.8513 153.186 68.2646 153.186 67.5713C153.186 66.878 152.939 66.2913 152.446 65.8113C151.966 65.3313 151.386 65.0913 150.706 65.0913C150.012 65.0913 149.426 65.3313 148.946 65.8113C148.466 66.2913 148.226 66.878 148.226 67.5713C148.226 68.2646 148.466 68.8513 148.946 69.3313C149.426 69.8113 150.012 70.0513 150.706 70.0513ZM155.686 70.0513C156.139 70.0513 156.552 69.9446 156.926 69.7313C157.312 69.5046 157.619 69.2046 157.846 68.8313C158.072 68.4446 158.186 68.0246 158.186 67.5713C158.186 67.118 158.072 66.7046 157.846 66.3313C157.619 65.9446 157.312 65.6446 156.926 65.4313C156.552 65.2046 156.139 65.0913 155.686 65.0913H153.166C153.486 65.4113 153.739 65.7846 153.926 66.2113C154.112 66.638 154.206 67.0913 154.206 67.5713C154.206 68.0513 154.112 68.5046 153.926 68.9313C153.739 69.358 153.486 69.7313 153.166 70.0513H155.686ZM162.236 74.0913L166.776 71.0713H164.276C163.65 71.0713 163.07 70.9046 162.536 70.5713C162.003 70.238 161.576 69.8046 161.256 69.2713C160.936 68.7246 160.776 68.158 160.776 67.5713C160.776 66.9313 160.93 66.3446 161.236 65.8113C161.556 65.2646 161.983 64.838 162.516 64.5313C163.063 64.2113 163.65 64.0513 164.276 64.0513H167.796V71.6113L162.816 74.9313L162.236 74.0913ZM166.776 70.0513V65.0713H164.276C163.836 65.0713 163.423 65.1846 163.036 65.4113C162.663 65.638 162.363 65.9446 162.136 66.3313C161.91 66.7046 161.796 67.1113 161.796 67.5513C161.796 68.0046 161.91 68.4246 162.136 68.8113C162.363 69.1846 162.663 69.4846 163.036 69.7113C163.423 69.938 163.836 70.0513 164.276 70.0513H166.776ZM167.336 70.0513H168.776L168.956 70.5713L168.776 71.0713H167.336V70.0513ZM168.603 70.5713L168.783 70.0513H179.623C180.317 70.0513 180.903 69.8113 181.383 69.3313C181.877 68.8513 182.123 68.2646 182.123 67.5713C182.123 66.878 181.877 66.2913 181.383 65.8113C180.903 65.3313 180.317 65.0913 179.623 65.0913H169.803V64.0513L176.823 59.5513L177.423 60.4313L171.623 64.0713H179.623C180.263 64.0713 180.85 64.2313 181.383 64.5513C181.93 64.858 182.357 65.278 182.663 65.8113C182.983 66.3446 183.143 66.9313 183.143 67.5713C183.143 68.2113 182.983 68.798 182.663 69.3313C182.357 69.8646 181.93 70.2913 181.383 70.6113C180.85 70.918 180.263 71.0713 179.623 71.0713H168.783L168.603 70.5713ZM188.27 69.9713L188.63 67.6713H189.01V69.9713H189.55V71.0713H188.27V69.9713ZM191.731 70.0513H196.391V67.5713C196.391 66.878 196.144 66.2913 195.651 65.8113C195.171 65.3313 194.584 65.0913 193.891 65.0913H192.391V64.0713H193.891C194.531 64.0713 195.117 64.2313 195.651 64.5513C196.184 64.858 196.604 65.278 196.911 65.8113C197.231 66.3446 197.391 66.9313 197.391 67.5713V71.0713H191.731V70.0513ZM203.039 71.0713C202.399 71.0713 201.812 70.918 201.279 70.6113C200.746 70.2913 200.319 69.8646 199.999 69.3313C199.692 68.7846 199.539 68.198 199.539 67.5713V59.5713L200.559 59.3113V67.5713C200.559 68.2646 200.799 68.8513 201.279 69.3313C201.772 69.8113 202.359 70.0513 203.039 70.0513L203.219 70.5713L203.039 71.0713ZM202.861 70.5713L203.021 70.0513H203.041C203.721 70.0513 204.301 69.8113 204.781 69.3313C205.274 68.8513 205.521 68.2646 205.521 67.5713V64.7313L206.541 64.4713V67.5713C206.541 68.2113 206.381 68.798 206.061 69.3313C205.754 69.8646 205.328 70.2913 204.781 70.6113C204.248 70.918 203.668 71.0713 203.041 71.0713H203.001L202.861 70.5713ZM202.741 73.0713H204.121V74.1913H202.741V73.0713ZM208.66 59.5713L209.7 59.3113V71.0713H208.66V59.5713ZM206.66 56.9713H209.72V56.1313L211.72 56.9713V57.9513H206.66V56.9713ZM211.078 74.0713L212.618 73.0713V64.7313L213.638 64.4713V73.6113L211.658 74.9313L211.078 74.0713ZM216.098 71.0713C215.552 71.0713 215.032 70.9246 214.538 70.6313C214.058 70.3246 213.672 69.9246 213.378 69.4313C213.098 68.9246 212.958 68.3913 212.958 67.8313L213.638 67.5713C213.638 68.0246 213.745 68.4446 213.958 68.8313C214.185 69.2046 214.485 69.5046 214.858 69.7313C215.245 69.9446 215.658 70.0513 216.098 70.0513L216.278 70.5713L216.098 71.0713ZM215.927 70.5713L216.107 70.0513H217.827C218.521 70.0513 219.107 69.8113 219.587 69.3313C220.067 68.8513 220.307 68.2646 220.307 67.5713V64.7313L221.307 64.4713V67.5713C221.307 68.0246 221.421 68.4446 221.647 68.8313C221.874 69.2046 222.174 69.5046 222.547 69.7313C222.934 69.9446 223.354 70.0513 223.807 70.0513L223.987 70.5713L223.807 71.0713C223.181 71.0713 222.601 70.918 222.067 70.6113C221.547 70.3046 221.127 69.898 220.807 69.3913C220.487 69.898 220.061 70.3046 219.527 70.6113C219.007 70.918 218.441 71.0713 217.827 71.0713H216.107L215.927 70.5713ZM220.887 74.0913H217.307V73.0713H220.887V74.0913ZM223.623 70.5713L223.783 70.0513H223.803C224.483 70.0513 225.063 69.8113 225.543 69.3313C226.036 68.8513 226.283 68.2646 226.283 67.5713V64.0713H229.783C230.423 64.0713 231.009 64.2313 231.543 64.5513C232.089 64.858 232.516 65.278 232.823 65.8113C233.143 66.3446 233.303 66.9313 233.303 67.5713C233.303 68.2113 233.143 68.798 232.823 69.3313C232.516 69.8646 232.089 70.2913 231.543 70.6113C231.009 70.918 230.423 71.0713 229.783 71.0713C229.169 71.0713 228.596 70.918 228.063 70.6113C227.529 70.3046 227.109 69.898 226.803 69.3913C226.483 69.898 226.056 70.3046 225.523 70.6113C225.003 70.918 224.429 71.0713 223.803 71.0713H223.783L223.623 70.5713ZM229.783 70.0513C230.476 70.0513 231.063 69.8113 231.543 69.3313C232.023 68.8513 232.263 68.2646 232.263 67.5713C232.263 66.878 232.023 66.2913 231.543 65.8113C231.063 65.3313 230.476 65.0913 229.783 65.0913H227.323V67.5713C227.323 68.2646 227.563 68.8513 228.043 69.3313C228.523 69.8113 229.103 70.0513 229.783 70.0513ZM235.418 59.5713L236.458 59.3113V71.0713H235.418V59.5713ZM241.859 74.0713L243.399 73.0713V64.7313L244.419 64.4713V73.6113L242.439 74.9313L241.859 74.0713ZM246.824 59.5713L247.864 59.3113V71.0713H246.824V59.5713ZM251.162 74.0913L255.702 71.0713H253.202C252.576 71.0713 251.996 70.9046 251.462 70.5713C250.929 70.238 250.502 69.8046 250.182 69.2713C249.862 68.7246 249.702 68.158 249.702 67.5713C249.702 66.9313 249.856 66.3446 250.162 65.8113C250.482 65.2646 250.909 64.838 251.442 64.5313C251.989 64.2113 252.576 64.0513 253.202 64.0513H256.722V71.6113L251.742 74.9313L251.162 74.0913ZM255.702 70.0513V65.0713H253.202C252.762 65.0713 252.349 65.1846 251.962 65.4113C251.589 65.638 251.289 65.9446 251.062 66.3313C250.836 66.7046 250.722 67.1113 250.722 67.5513C250.722 68.0046 250.836 68.4246 251.062 68.8113C251.289 69.1846 251.589 69.4846 251.962 69.7113C252.349 69.938 252.762 70.0513 253.202 70.0513H255.702ZM256.262 70.0513H257.702L257.882 70.5713L257.702 71.0713H256.262V70.0513ZM257.529 70.5713L257.689 70.0513H257.709C258.389 70.0513 258.969 69.8113 259.449 69.3313C259.942 68.8513 260.189 68.2646 260.189 67.5713V59.5713L261.229 59.3513V67.5713C261.229 68.2113 261.069 68.798 260.749 69.3313C260.442 69.8646 260.016 70.2913 259.469 70.6113C258.936 70.918 258.349 71.0713 257.709 71.0713H257.669L257.529 70.5713ZM263.689 71.0713C263.076 71.0713 262.502 70.918 261.969 70.6113C261.449 70.3046 261.029 69.898 260.709 69.3913L260.469 68.4713L260.709 67.7113L261.229 67.5713C261.229 68.2646 261.469 68.8513 261.949 69.3313C262.429 69.8113 263.009 70.0513 263.689 70.0513L263.869 70.5713L263.689 71.0713ZM263.506 70.5713L263.666 70.0513H263.686C264.366 70.0513 264.946 69.8113 265.426 69.3313C265.919 68.8513 266.166 68.2646 266.166 67.5713V64.7313L267.186 64.4713V67.5713C267.186 68.2113 267.026 68.798 266.706 69.3313C266.399 69.8646 265.972 70.2913 265.426 70.6113C264.892 70.918 264.312 71.0713 263.686 71.0713H263.646L263.506 70.5713ZM263.386 73.0713H264.766V74.1913H263.386V73.0713ZM272.313 69.9713L272.673 67.6713H273.053V69.9713H273.593V71.0713H272.313V69.9713ZM279.934 71.0713C279.307 71.0713 278.72 70.918 278.174 70.6113C277.64 70.2913 277.214 69.8646 276.894 69.3313C276.587 68.798 276.434 68.2113 276.434 67.5713C276.434 66.9446 276.587 66.3646 276.894 65.8313C277.214 65.2846 277.64 64.858 278.174 64.5513C278.72 64.2313 279.307 64.0713 279.934 64.0713H283.434V67.5713C283.434 68.2113 283.274 68.798 282.954 69.3313C282.647 69.8646 282.227 70.2913 281.694 70.6113C281.16 70.918 280.574 71.0713 279.934 71.0713ZM279.934 70.0513C280.627 70.0513 281.214 69.8113 281.694 69.3313C282.174 68.8513 282.414 68.2646 282.414 67.5713V65.0913H279.934C279.254 65.0913 278.667 65.3313 278.174 65.8113C277.694 66.2913 277.454 66.878 277.454 67.5713C277.454 68.2646 277.694 68.8513 278.174 69.3313C278.667 69.8113 279.254 70.0513 279.934 70.0513ZM284.574 74.0713L286.114 73.0713V64.7313L287.134 64.4713V73.6113L285.154 74.9313L284.574 74.0713ZM288.879 70.0513H293.539V67.5713C293.539 66.878 293.292 66.2913 292.799 65.8113C292.319 65.3313 291.732 65.0913 291.039 65.0913H289.539V64.0713H291.039C291.679 64.0713 292.266 64.2313 292.799 64.5513C293.332 64.858 293.752 65.278 294.059 65.8113C294.379 66.3446 294.539 66.9313 294.539 67.5713V71.0713H288.879V70.0513ZM293.819 70.0513H295.439L295.619 70.5513L295.439 71.0713H293.599L293.819 70.0513ZM295.263 70.5713L295.423 70.0513H295.443C296.123 70.0513 296.703 69.8113 297.183 69.3313C297.677 68.8513 297.923 68.2646 297.923 67.5713V64.0713H301.423C302.063 64.0713 302.65 64.2313 303.183 64.5513C303.73 64.858 304.157 65.278 304.463 65.8113C304.783 66.3446 304.943 66.9313 304.943 67.5713C304.943 68.2113 304.783 68.798 304.463 69.3313C304.157 69.8646 303.73 70.2913 303.183 70.6113C302.65 70.918 302.063 71.0713 301.423 71.0713C300.81 71.0713 300.237 70.918 299.703 70.6113C299.17 70.3046 298.75 69.898 298.443 69.3913C298.123 69.898 297.697 70.3046 297.163 70.6113C296.643 70.918 296.07 71.0713 295.443 71.0713H295.423L295.263 70.5713ZM301.423 70.0513C302.117 70.0513 302.703 69.8113 303.183 69.3313C303.663 68.8513 303.903 68.2646 303.903 67.5713C303.903 66.878 303.663 66.2913 303.183 65.8113C302.703 65.3313 302.117 65.0913 301.423 65.0913H298.963V67.5713C298.963 68.2646 299.203 68.8513 299.683 69.3313C300.163 69.8113 300.743 70.0513 301.423 70.0513ZM306.059 74.0713L307.599 73.0713V64.7313L308.619 64.4713V73.6113L306.639 74.9313L306.059 74.0713ZM311.079 71.0713C310.532 71.0713 310.012 70.9246 309.519 70.6313C309.039 70.3246 308.652 69.9246 308.359 69.4313C308.079 68.9246 307.939 68.3913 307.939 67.8313L308.619 67.5713C308.619 68.0246 308.725 68.4446 308.939 68.8313C309.165 69.2046 309.465 69.5046 309.839 69.7313C310.225 69.9446 310.639 70.0513 311.079 70.0513L311.259 70.5713L311.079 71.0713ZM310.908 70.5713L311.088 70.0513H321.928C322.621 70.0513 323.208 69.8113 323.688 69.3313C324.181 68.8513 324.428 68.2646 324.428 67.5713C324.428 66.878 324.181 66.2913 323.688 65.8113C323.208 65.3313 322.621 65.0913 321.928 65.0913H312.108V64.0513L319.128 59.5513L319.728 60.4313L313.928 64.0713H321.928C322.568 64.0713 323.155 64.2313 323.688 64.5513C324.235 64.858 324.661 65.278 324.968 65.8113C325.288 66.3446 325.448 66.9313 325.448 67.5713C325.448 68.2113 325.288 68.798 324.968 69.3313C324.661 69.8646 324.235 70.2913 323.688 70.6113C323.155 70.918 322.568 71.0713 321.928 71.0713H311.088L310.908 70.5713ZM314.128 60.4313L318.028 57.9513L318.328 58.3913L314.428 60.8913L314.128 60.4313Z" fill="white"/>
<path d="M69.088 108.135L70.8 107.703V118.071H69.088V108.135ZM76.2906 114.023C75.7466 114.023 75.272 113.906 74.8666 113.671C74.472 113.426 74.1573 113.074 73.9226 112.615C73.6986 112.146 73.576 111.575 73.5546 110.903L74.6426 110.759C74.6426 111.197 74.7813 111.565 75.0586 111.863C75.336 112.151 75.6826 112.295 76.0986 112.295H76.5146C76.3546 112.114 76.2213 111.89 76.1146 111.623C76.008 111.357 75.9546 111.069 75.9546 110.759C75.9546 110.173 76.0986 109.629 76.3866 109.127C76.6853 108.626 77.0853 108.231 77.5866 107.943C78.088 107.645 78.632 107.495 79.2186 107.495H81.6986L81.7146 109.239H79.2186C78.8026 109.239 78.44 109.389 78.1306 109.687C77.832 109.975 77.6826 110.333 77.6826 110.759C77.6826 111.186 77.832 111.549 78.1306 111.847C78.4293 112.146 78.792 112.295 79.2186 112.295H81.6826V114.023H76.2906ZM72.9146 108.135L74.6426 107.703V118.071H72.9146V108.135ZM86.6246 117.735C86.0913 117.735 85.5953 117.602 85.1366 117.335C84.6886 117.069 84.3313 116.706 84.0646 116.247C83.798 115.789 83.6646 115.298 83.6646 114.775C83.6646 114.242 83.798 113.751 84.0646 113.303C84.3313 112.845 84.6886 112.487 85.1366 112.231C85.5846 111.965 86.07 111.831 86.5926 111.831C87.126 111.831 87.622 111.965 88.0806 112.231C88.5393 112.498 88.902 112.861 89.1686 113.319C89.446 113.767 89.5793 114.258 89.5686 114.791C89.5686 115.325 89.4353 115.821 89.1686 116.279C88.9126 116.727 88.5553 117.085 88.0966 117.351C87.6486 117.607 87.158 117.735 86.6246 117.735ZM86.6246 116.231C87.0086 116.231 87.3393 116.093 87.6166 115.815C87.9046 115.527 88.0486 115.186 88.0486 114.791C88.0486 114.397 87.9046 114.061 87.6166 113.783C87.3393 113.495 87.0033 113.351 86.6086 113.351C86.214 113.351 85.878 113.495 85.6006 113.783C85.334 114.061 85.2006 114.397 85.2006 114.791C85.2006 115.186 85.3393 115.527 85.6166 115.815C85.894 116.093 86.23 116.231 86.6246 116.231ZM95.0094 114.023C94.4654 114.023 93.9907 113.906 93.5854 113.671C93.1907 113.426 92.876 113.074 92.6414 112.615C92.4174 112.146 92.2947 111.575 92.2734 110.903L93.3614 110.759C93.3614 111.197 93.5 111.565 93.7774 111.863C94.0547 112.151 94.4014 112.295 94.8174 112.295H95.2334C95.0734 112.114 94.94 111.89 94.8334 111.623C94.7267 111.357 94.6734 111.069 94.6734 110.759C94.6734 110.173 94.8174 109.629 95.1054 109.127C95.404 108.626 95.804 108.231 96.3054 107.943C96.8067 107.645 97.3507 107.495 97.9374 107.495H100.417L100.433 109.239H97.9374C97.5214 109.239 97.1587 109.389 96.8494 109.687C96.5507 109.975 96.4014 110.333 96.4014 110.759C96.4014 111.186 96.5507 111.549 96.8494 111.847C97.148 112.146 97.5107 112.295 97.9374 112.295H100.401V114.023H95.0094ZM91.6334 108.135L93.3614 107.703V118.071H91.6334V108.135Z" fill="white"/>
<line x1="110.5" y1="112.071" x2="110.5" y2="116.071" stroke="#8E8E8E"/>
<path d="M118.88 117.371H123.38V115.231C123.38 114.631 123.167 114.125 122.74 113.711C122.327 113.298 121.82 113.091 121.22 113.091H119.38V111.391H121.22C121.927 111.391 122.573 111.565 123.16 111.911C123.747 112.245 124.207 112.705 124.54 113.291C124.887 113.878 125.06 114.525 125.06 115.231V119.071H118.88V117.371ZM127.134 106.991L128.854 106.571V119.071H127.134V106.991ZM130.599 117.371H135.099V115.231C135.099 114.631 134.885 114.125 134.459 113.711C134.045 113.298 133.539 113.091 132.939 113.091H131.099V111.391H132.939C133.645 111.391 134.292 111.565 134.879 111.911C135.465 112.245 135.925 112.705 136.259 113.291C136.605 113.878 136.779 114.525 136.779 115.231V119.071H130.599V117.371ZM137.613 121.911L139.273 120.831V112.131L140.993 111.691V121.731L138.573 123.351L137.613 121.911ZM143.113 119.071C142.579 119.071 142.066 118.905 141.573 118.571C141.079 118.225 140.679 117.785 140.373 117.251C140.079 116.705 139.933 116.158 139.933 115.611L140.993 115.231C140.993 115.618 141.086 115.978 141.273 116.311C141.459 116.631 141.713 116.891 142.033 117.091C142.366 117.278 142.726 117.371 143.113 117.371L143.413 118.231L143.113 119.071ZM142.798 118.231L143.098 117.371H150.458V115.231C150.458 114.631 150.244 114.125 149.818 113.711C149.404 113.298 148.904 113.091 148.318 113.091H144.798L145.198 111.391H148.318C149.011 111.391 149.651 111.565 150.238 111.911C150.838 112.245 151.311 112.705 151.658 113.291C152.004 113.878 152.178 114.525 152.178 115.231V119.071H143.098L142.798 118.231ZM145.998 107.811H147.758V109.351H145.998V107.811Z" fill="white"/>
<line x1="161.5" y1="112.071" x2="161.5" y2="116.071" stroke="#8E8E8E"/>
<path d="M180.52 113.675C180.376 113.795 180.1 113.903 179.692 113.999C179.308 114.071 178.864 114.119 178.36 114.143C177.856 114.143 177.364 114.059 176.884 113.891C175.636 113.555 174.544 112.931 173.608 112.019C172.672 111.107 172.024 110.027 171.664 108.779C171.328 107.531 171.34 106.235 171.7 104.891L173.32 99.0953L177.352 99.1673L175.48 105.935C175.336 106.535 175.336 107.135 175.48 107.735C175.624 108.335 175.912 108.851 176.344 109.283C176.776 109.715 177.292 110.003 177.892 110.147C178.492 110.315 179.08 110.327 179.656 110.183C180.256 110.015 180.772 109.715 181.204 109.283C181.66 108.851 181.972 108.335 182.14 107.735L184.12 100.499L187.828 101.543L181.564 123.071H177.64L180.52 113.675Z" fill="white"/>
<line x1="199.5" y1="112.071" x2="199.5" y2="116.071" stroke="#8E8E8E"/>
<path d="M212.22 119.071C211.527 119.071 210.88 118.898 210.28 118.551C209.693 118.205 209.227 117.738 208.88 117.151C208.547 116.565 208.38 115.925 208.38 115.231C208.38 114.538 208.553 113.898 208.9 113.311C209.247 112.711 209.713 112.245 210.3 111.911C210.887 111.565 211.527 111.391 212.22 111.391H216.06V115.231C216.06 115.925 215.887 116.565 215.54 117.151C215.207 117.738 214.747 118.205 214.16 118.551C213.573 118.898 212.927 119.071 212.22 119.071ZM212.22 117.371C212.82 117.371 213.327 117.165 213.74 116.751C214.153 116.338 214.36 115.831 214.36 115.231V113.091H212.22C211.633 113.091 211.127 113.298 210.7 113.711C210.287 114.125 210.08 114.631 210.08 115.231C210.08 115.831 210.287 116.338 210.7 116.751C211.127 117.165 211.633 117.371 212.22 117.371ZM218.22 119.071C217.607 119.071 217.04 118.931 216.52 118.651C216 118.371 215.567 118.005 215.22 117.551L214.8 116.491L215.16 115.431L216.06 115.211C216.06 115.598 216.16 115.958 216.36 116.291C216.56 116.625 216.82 116.891 217.14 117.091C217.473 117.278 217.833 117.371 218.22 117.371L218.52 118.231L218.22 119.071ZM217.911 118.231L218.191 117.371H218.211C218.798 117.371 219.298 117.165 219.711 116.751C220.138 116.338 220.351 115.831 220.351 115.231V112.111L222.051 111.691V115.231C222.051 115.831 222.258 116.338 222.671 116.751C223.084 117.165 223.591 117.371 224.191 117.371L224.491 118.231L224.191 119.071C223.591 119.071 223.024 118.938 222.491 118.671C221.958 118.391 221.524 118.018 221.191 117.551C220.844 118.018 220.411 118.391 219.891 118.671C219.371 118.938 218.811 119.071 218.211 119.071H218.191L217.911 118.231ZM217.711 121.071H219.471V122.611H217.711V121.071ZM223.887 118.231L224.188 117.371H225.748C226.348 117.371 226.854 117.165 227.268 116.751C227.681 116.338 227.888 115.831 227.888 115.231V112.111L229.588 111.691V115.231C229.588 115.618 229.681 115.978 229.868 116.311C230.068 116.631 230.328 116.891 230.648 117.091C230.981 117.278 231.341 117.371 231.728 117.371L232.028 118.231L231.728 119.071C231.128 119.071 230.561 118.938 230.028 118.671C229.508 118.391 229.074 118.018 228.728 117.551C228.381 118.018 227.948 118.391 227.428 118.671C226.908 118.938 226.348 119.071 225.748 119.071H224.188L223.887 118.231ZM227.548 108.071H229.308V109.611H227.548V108.071ZM231.427 118.231L231.727 117.371H233.327C233.727 117.371 234.087 117.278 234.407 117.091C234.74 116.891 235 116.631 235.187 116.311C235.387 115.978 235.487 115.618 235.487 115.231V112.371H237.167V115.711C237.167 116.165 237.327 116.558 237.647 116.891C237.98 117.211 238.38 117.371 238.847 117.371C239.3 117.371 239.687 117.211 240.007 116.891C240.34 116.558 240.507 116.165 240.507 115.711V112.371H242.227V115.711C242.227 116.165 242.387 116.558 242.707 116.891C243.04 117.211 243.433 117.371 243.887 117.371C244.34 117.371 244.733 117.211 245.067 116.891C245.4 116.558 245.567 116.165 245.567 115.711V112.191L247.247 111.771V115.691C247.247 116.291 247.093 116.858 246.787 117.391C246.493 117.911 246.087 118.325 245.567 118.631C245.047 118.925 244.487 119.071 243.887 119.071C243.433 119.071 242.973 118.958 242.507 118.731C242.053 118.491 241.673 118.205 241.367 117.871C241.073 118.245 240.7 118.538 240.247 118.751C239.807 118.965 239.34 119.071 238.847 119.071C238.367 119.071 237.873 118.931 237.367 118.651C236.86 118.371 236.48 118.065 236.227 117.731C235.867 118.145 235.433 118.471 234.927 118.711C234.433 118.951 233.9 119.071 233.327 119.071H231.727L231.427 118.231ZM239.287 108.451H241.887V106.571L243.467 107.031V109.891H239.287V108.451ZM253.138 119.071C252.445 119.071 251.798 118.898 251.198 118.551C250.611 118.205 250.145 117.738 249.798 117.151C249.465 116.565 249.298 115.925 249.298 115.231C249.298 114.538 249.471 113.898 249.818 113.311C250.165 112.711 250.631 112.245 251.218 111.911C251.805 111.565 252.445 111.391 253.138 111.391H256.978V115.231C256.978 115.925 256.805 116.565 256.458 117.151C256.125 117.738 255.665 118.205 255.078 118.551C254.491 118.898 253.845 119.071 253.138 119.071ZM253.138 117.371C253.738 117.371 254.245 117.165 254.658 116.751C255.071 116.338 255.278 115.831 255.278 115.231V113.091H253.138C252.551 113.091 252.045 113.298 251.618 113.711C251.205 114.125 250.998 114.631 250.998 115.231C250.998 115.831 251.205 116.338 251.618 116.751C252.045 117.165 252.551 117.371 253.138 117.371ZM259.138 119.071C258.525 119.071 257.958 118.931 257.438 118.651C256.918 118.371 256.485 118.005 256.138 117.551L255.718 116.491L256.078 115.431L256.978 115.211C256.978 115.598 257.078 115.958 257.278 116.291C257.478 116.625 257.738 116.891 258.058 117.091C258.391 117.278 258.751 117.371 259.138 117.371L259.438 118.231L259.138 119.071ZM258.829 118.231L259.109 117.371H259.129C259.516 117.371 259.869 117.278 260.189 117.091C260.522 116.891 260.782 116.631 260.969 116.311C261.169 115.978 261.269 115.618 261.269 115.231V112.371H262.969V115.711C262.969 116.165 263.129 116.558 263.449 116.891C263.782 117.211 264.176 117.371 264.629 117.371C265.096 117.371 265.489 117.211 265.809 116.891C266.142 116.558 266.309 116.165 266.309 115.711V112.371H268.009V115.711C268.009 116.165 268.169 116.558 268.489 116.891C268.822 117.211 269.216 117.371 269.669 117.371C270.136 117.371 270.529 117.211 270.849 116.891C271.182 116.558 271.349 116.165 271.349 115.711V112.191L273.049 111.771V115.691C273.049 116.291 272.896 116.858 272.589 117.391C272.282 117.911 271.869 118.325 271.349 118.631C270.842 118.925 270.282 119.071 269.669 119.071C269.229 119.071 268.776 118.958 268.309 118.731C267.856 118.491 267.476 118.205 267.169 117.871C266.862 118.245 266.489 118.538 266.049 118.751C265.609 118.965 265.136 119.071 264.629 119.071C264.162 119.071 263.676 118.931 263.169 118.651C262.662 118.371 262.276 118.065 262.009 117.731C261.662 118.145 261.236 118.471 260.729 118.711C260.236 118.951 259.702 119.071 259.129 119.071H259.089L258.829 118.231Z" fill="white"/>
</svg>
