<svg width="48" height="75" viewBox="0 0 48 75" fill="none" xmlns="http://www.w3.org/2000/svg">
<path id="Vector" d="M-14.2828 0.110357C-14.3862 0.218444 -14.275 0.350594 -14.2427 0.455822C-14.1422 0.715443 -14.0598 0.982102 -13.9627 1.24318C-13.7341 1.91364 -13.4165 2.54904 -13.1403 3.20061C-12.8284 3.87851 -12.5658 4.5821 -12.1765 5.22331C-11.9166 5.67262 -11.5048 6.01517 -11.1433 6.39266C-10.404 7.15734 -9.52785 7.79909 -8.53109 8.28742C-7.75113 8.6755 -7.26531 9.01893 -6.4395 9.44958C-5.79267 9.74376 -5.15666 10.0547 -4.51133 10.3506C-3.78603 10.6491 -3.03561 10.9031 -2.30653 11.1942C-1.29365 11.6756 -0.347134 12.2575 0.578736 12.853C1.19074 13.2938 1.75026 13.7894 2.34911 14.2441C2.72027 14.5465 3.0982 14.847 3.55846 15.0437C3.6528 15.0805 3.77084 15.1374 3.89029 15.1654C5.2453 16.8809 6.43545 18.7055 7.56051 20.5621C8.04032 21.2881 8.41646 22.0684 8.81983 22.8345C9.03633 23.2417 9.19934 23.5571 9.35572 23.8715C9.15666 23.6663 8.98622 23.4974 8.91679 23.4316C7.84408 22.2858 6.71066 21.1751 5.39579 20.2491C4.88713 19.959 4.37835 19.6893 3.84764 19.4319C3.99521 19.3089 4.11548 19.1624 4.19077 18.9896C4.25753 18.7039 4.16284 18.3663 3.97085 18.0514C3.98165 18.0022 3.9903 17.9528 3.99498 17.9028C4.00584 17.4499 3.69366 16.9811 3.20844 16.8642C2.97963 16.833 2.74609 16.903 2.51576 16.9402C2.24951 16.9892 1.97771 17.0598 1.73939 17.1944C1.67872 17.2216 1.61854 17.249 1.55828 17.2761C1.51203 17.133 1.38857 16.9513 1.28137 16.9713C1.24832 16.9386 1.2135 16.9083 1.17736 16.8815C0.908864 16.693 0.483573 16.7832 0.201846 16.9748C0.0560689 17.0846 0.0939394 17.2582 0.147 17.3863C0.249892 17.6308 0.484675 17.8004 0.765003 17.868C0.772043 17.8707 0.778703 17.8725 0.785584 17.875C0.686712 18.0876 0.677044 18.3167 0.724248 18.5371C0.724157 18.5458 0.723159 18.5546 0.723347 18.5631C0.68719 18.6703 0.662472 18.7793 0.652522 18.8875C0.650876 19.2442 0.885643 19.5471 1.16787 19.7586C1.40298 19.948 1.73455 19.9887 2.06743 19.94C2.1043 19.9448 2.14105 19.9499 2.17851 19.9525C2.30339 19.9787 2.42625 19.9841 2.54157 19.9629C2.5823 19.9638 2.62371 19.9626 2.66602 19.9585C2.9086 19.9156 3.20727 19.8487 3.42485 19.7086C3.56833 19.7636 3.73022 19.8368 3.89339 19.9131C4.44607 20.1823 5.01177 20.44 5.52788 20.7586C5.95839 21.0787 6.67349 21.6479 7.19457 22.1365C7.81011 22.7153 8.13711 23.0444 8.72889 23.6668C9.18547 24.1206 9.43667 24.3591 9.79383 24.7806C9.8297 24.8566 9.86635 24.9346 9.90531 25.0175C10.5675 26.3407 11.1266 27.7069 11.6736 29.0795C12.0042 29.8859 12.2389 30.729 12.5253 31.5521C12.7117 32.1193 12.9061 32.6846 13.0779 33.2569C13.0866 33.332 13.0953 33.407 13.1041 33.482C12.8624 33.0888 12.6154 32.6984 12.3734 32.3054C11.5771 31.1479 10.7932 29.9739 9.79583 28.9533C8.67973 27.75 7.41794 26.6672 6.17433 25.5731C5.25943 24.7378 4.33759 23.9067 3.30084 23.1894C2.22127 22.424 1.01829 21.8032 -0.171431 21.1762C-1.28307 20.5742 -2.42341 20.0117 -3.66415 19.6161C-4.2584 19.4205 -4.85078 19.2212 -5.4472 19.03C-5.96423 18.9013 -6.45945 18.6888 -7.02396 18.7254C-7.15274 18.7179 -7.28526 18.6928 -7.41032 18.7479C-7.48371 18.7683 -7.51227 18.8439 -7.55136 18.897C-7.58512 18.9847 -7.54306 19.0719 -7.50067 19.1444C-7.39479 19.3308 -7.17006 19.4048 -6.98452 19.5137C-6.69275 19.681 -6.38066 19.8205 -6.08948 19.9882C-5.08647 20.6313 -4.29675 21.4903 -3.47541 22.3042C-3.38726 22.4204 -3.32728 22.5539 -3.24891 22.6761C-3.11364 22.8779 -2.96191 23.0698 -2.82015 23.2677L-2.84543 23.2329C-2.34746 23.9251 -1.81733 24.5961 -1.29256 25.2707C-0.937421 25.7822 -0.533695 26.2595 -0.120184 26.7312C0.26898 27.1823 0.651388 27.6393 1.08844 28.0532C2.3903 29.3988 4.30525 30.0579 6.12879 30.7263C7.18127 31.0684 8.14549 31.5598 9.13619 32.0061C9.50502 32.1766 9.88494 32.3379 10.2061 32.5721C10.3779 32.7003 10.4866 32.8592 10.6669 32.9923C11.1259 33.3667 11.6561 33.6954 12.0759 34.0948C12.3413 34.3762 12.5987 34.6965 12.8434 35.0045C12.9583 35.1743 13.0734 35.3453 13.2298 35.4856C13.3046 35.5587 13.3974 35.6149 13.4877 35.6477C13.7426 36.8384 14.0289 38.0208 14.3185 39.2022C14.5319 40.1211 14.7054 41.0507 14.92 41.9692C15.1459 42.849 15.3455 43.2774 15.5666 44.2243C15.6416 44.5385 15.7115 44.8538 15.7798 45.1697C15.9409 45.9745 16.0956 46.7808 16.2463 47.5884C16.3478 48.0504 16.4475 48.5132 16.5475 48.976C16.4709 48.7499 16.3927 48.5245 16.3126 48.2999C16.0128 47.4794 15.6547 46.6798 15.3045 45.8797C14.7382 44.7055 14.0455 43.5913 13.2644 42.5357C12.645 41.7421 12.0732 40.9148 11.4002 40.1585C10.8871 39.6006 10.3069 39.0974 9.7149 38.6083C8.85562 37.8933 7.97387 37.1902 6.95447 36.6533C5.67798 35.9775 4.348 35.3544 2.91722 34.9363C2.71339 34.88 2.49894 34.8524 2.28625 34.8221C2.25607 34.813 2.22716 34.8157 2.19954 34.8302C2.03531 34.9091 2.18603 35.123 2.22789 35.2226C2.34581 35.4681 2.4772 35.7072 2.60684 35.947C3.12471 36.896 3.63591 37.8484 4.13386 38.8072C4.26661 39.1633 4.88813 40.2705 5.37113 40.7967C5.67401 41.1726 5.97076 41.5593 6.37611 41.8515C6.94312 42.2955 7.60263 42.6319 8.21823 43.0195C8.79665 43.4016 9.44093 43.7 10.0246 44.0744C10.8077 44.6229 11.5938 45.1799 12.3591 45.7413C13.1124 46.4136 13.8786 47.0854 14.5261 47.8294C15.0277 48.4564 15.2491 48.736 15.6246 49.3687C15.937 50.0131 16.2286 50.6692 16.4781 51.34C16.637 51.7494 16.8692 52.7418 17.1716 53.3507C17.333 53.6025 17.468 53.9204 17.7569 54.067C17.9255 54.6684 18.1059 55.2661 18.3046 55.8581C18.3753 56.2467 18.4654 56.6305 18.5789 57.0083C18.4854 56.8056 18.381 56.6081 18.2498 56.4242C17.8191 55.781 17.171 55.2999 16.5651 54.799C16.2441 54.5197 15.9231 54.2399 15.5751 53.9869C15.5418 53.9572 15.5055 53.9312 15.4683 53.9062C15.5146 53.6429 15.4707 53.3771 15.3152 53.1657C15.1496 52.9264 14.9101 52.7089 14.5873 52.6489C14.0803 52.5898 13.437 52.7172 13.0776 53.1124C13.0509 53.1282 13.0255 53.1457 13.0007 53.1637C12.9882 53.1032 12.9646 53.0425 12.9312 52.9877C12.9123 52.9037 12.8246 52.8066 12.7673 52.7838C12.7238 52.7595 12.67 52.7731 12.626 52.7996C12.6244 52.8004 12.6227 52.8012 12.6211 52.8021C12.6117 52.8021 12.6034 52.8 12.5937 52.8008C12.4713 52.8425 12.3592 52.9304 12.2813 53.0265C12.0521 53.3105 12.4056 53.5875 12.7193 53.598C12.6892 53.8038 12.7455 54.0006 12.8519 54.1773C12.9512 54.4342 13.1565 54.6476 13.4389 54.7415C13.6499 54.8704 13.8973 54.9613 14.1696 54.9468C14.5334 54.9321 15.0595 54.8312 15.179 54.4686C15.2076 54.4453 15.2355 54.4213 15.2619 54.3964C15.2857 54.3735 15.3057 54.3489 15.3241 54.3236C15.3456 54.3327 15.3692 54.3427 15.3948 54.3535C15.7542 54.6055 15.8572 54.6941 16.2925 55.053C16.8135 55.4698 17.4209 55.896 17.7622 56.2529C18.228 56.7247 18.4314 57.3111 18.7795 57.9328C18.8871 58.1136 19.0076 58.2881 19.1382 58.456C19.3124 58.8264 19.5063 59.1879 19.7108 59.544C19.8397 59.8606 19.9854 60.1704 20.1169 60.4861C20.1695 60.6239 20.2198 60.7629 20.27 60.9018C19.8684 60.4054 19.4754 59.9015 18.9763 59.4816C18.3767 58.9575 17.6725 58.5443 16.9314 58.1877C16.3729 57.905 15.816 57.6156 15.2096 57.4098C14.5119 57.1729 13.7868 56.9997 13.0547 56.844C11.9101 56.4993 10.7403 56.2003 9.51197 56.0889C9.01007 56.0451 8.5082 56.0015 8.00631 55.9578C7.56551 55.8999 7.11591 55.8345 6.66011 55.9594C5.61764 56.2332 4.54851 56.3808 3.51756 56.706C3.02238 56.8652 2.5854 57.1459 2.16111 57.4318C1.97841 57.6292 2.30714 57.9841 2.49295 58.0645C2.56283 58.1004 2.64694 58.1 2.72439 58.0648C2.7659 58.0497 2.80681 58.0329 2.84659 58.0136C2.85878 58.0071 2.87075 58.0015 2.88141 57.9967C3.04257 57.9383 3.21107 57.9066 3.37827 57.8776C3.79526 57.8035 3.92026 57.8051 4.31867 57.9103C4.64181 58.0011 4.96418 58.1163 5.3944 58.3056C6.2277 58.6923 7.04501 59.104 7.896 59.4635C8.62505 59.8119 9.429 60.0565 10.2904 60.0857C10.8631 60.1244 11.4442 60.0344 12.0217 60.0096C12.9369 59.9839 14.3031 59.8801 14.9934 59.8617C15.4836 59.8923 15.9492 60.0207 16.4353 60.071C16.9718 60.1399 17.5207 60.1985 18.0073 60.3971C18.3263 60.5299 18.6514 60.6558 18.9531 60.8154C19.1205 60.9095 19.2668 61.0273 19.4173 61.1403C19.8851 61.4979 20.3496 61.8549 20.8193 62.2196C20.8305 62.2301 20.8416 62.2405 20.8527 62.251C21.1676 62.8257 21.6055 63.3292 22.005 63.8526C22.5131 64.5364 23.0158 65.2252 23.6554 65.813C23.6232 65.7796 23.591 65.7463 23.5588 65.713C24.028 66.1816 24.4291 66.7012 24.886 67.1788C25.4926 67.7485 26.1486 68.285 26.8597 68.7504C28.2677 69.6095 29.7272 70.4109 31.2551 71.1054C31.8031 71.3363 32.3749 71.5245 32.936 71.7322C31.9012 71.54 30.8762 71.3156 29.8145 71.2184C28.9768 71.0926 28.1843 70.8305 27.3637 70.6538C26.3527 70.4559 25.5222 70.0981 24.4565 69.6872C23.5313 69.28 22.1538 68.4607 21.4391 68.084C20.1603 67.3835 18.8786 66.6704 17.4846 66.1429C16.8486 65.9274 16.1781 65.7859 15.5178 65.6252C14.8107 65.5021 14.0864 65.3552 13.3415 65.4355C12.7168 65.5357 12.1629 65.8403 11.6385 66.0316C10.6989 66.3321 9.75387 66.6633 8.89737 67.156C9.85901 66.7712 10.8745 66.5531 11.881 66.3546C12.4581 66.2139 13.0244 65.9931 13.6168 65.9529C14.3329 65.935 15.333 66.1635 16.1579 66.3747C16.7702 66.5374 17.317 66.6525 17.7143 66.8074C19.303 67.4358 20.7579 68.2726 22.2306 69.0724C22.7931 69.3799 23.8173 69.9904 24.6913 70.3523C25.4707 70.6594 26.2555 70.9611 27.0733 71.1948C27.5083 71.2955 27.9465 71.3881 28.3792 71.4956C28.8861 71.613 29.3851 71.7532 29.8998 71.8498C30.3676 71.8964 30.8329 71.9513 31.2942 72.0236C32.1999 72.1743 33.0966 72.3624 34.0079 72.4963C33.591 72.4879 33.1669 72.4812 32.7268 72.4834C31.3585 72.3929 29.4773 72.346 27.9471 72.1781C27.8825 72.1706 27.8178 72.1633 27.7531 72.1558C27.9076 72.1901 28.0621 72.2243 28.2167 72.2583C29.2076 72.4468 30.2071 72.6054 31.2216 72.7135C32.4048 72.8772 33.6057 72.9546 34.8156 72.9876C33.7588 73.0455 32.7005 73.1195 31.649 73.1224C30.7796 73.0864 29.4021 72.8862 28.3615 72.7782C27.829 72.7122 27.29 72.6706 26.7604 72.5939C26.0879 72.4692 25.4409 72.2747 24.7863 72.1043C23.011 71.5964 21.2456 70.7372 19.4713 69.8698C18.7049 69.4998 17.9577 69.1003 17.1812 68.7459C16.6936 68.5541 16.1802 68.4104 15.6971 68.21C13.6861 67.3919 11.5817 66.9896 9.2607 67.2922C9.19395 67.298 9.12725 67.3024 9.06059 67.3075C9.26066 67.3218 9.46214 67.3282 9.6634 67.3361C10.4652 67.3653 11.2548 67.4613 12.0285 67.6043C13.1721 67.819 14.2592 68.1871 15.3085 68.6042C15.6426 68.741 15.9747 68.8818 16.3158 69.0066C16.7236 69.1538 17.1516 69.2653 17.5373 69.4519C20.0021 70.6335 22.4024 71.9612 25.1121 72.727C25.6839 72.8685 26.2478 73.0316 26.8314 73.1429C27.5577 73.2558 28.3057 73.29 29.0385 73.3799C30.0406 73.4789 31.0363 73.6327 32.0616 73.605C33.5279 73.5098 34.9916 73.244 36.4565 73.061C36.5296 73.0637 36.6027 73.0658 36.6759 73.0673C36.8783 73.1246 37.0818 73.1797 37.2861 73.233C37.3958 73.2678 37.5057 73.3026 37.6154 73.3374C37.8976 73.4249 38.1933 73.482 38.4813 73.5565C38.9617 73.6721 39.4566 73.7482 39.9436 73.8458C40.8368 74.0187 41.7427 74.1667 42.6638 74.2381C43.683 74.2803 44.714 74.2703 45.7445 74.1763C46.275 74.1893 46.8061 74.1976 47.3364 74.2086C47.0307 74.171 46.7242 74.136 46.4174 74.1019C46.7038 74.0649 46.9901 74.0231 47.2757 73.9708C46.5455 74.0009 45.8197 73.991 45.098 73.9558C44.3908 73.8762 43.6854 73.7905 42.9866 73.6804C41.2604 73.3353 39.5469 72.9515 37.8444 72.5427C37.7126 72.5092 37.5809 72.475 37.4491 72.441C37.2888 72.3549 37.0848 72.3245 36.8856 72.2931C36.4168 72.1684 35.9492 72.0387 35.4842 71.903C34.7633 71.5051 34.0431 71.1064 33.3474 70.6761C32.8916 70.4052 32.4287 70.1363 32.0437 69.7875C31.4247 69.0995 31.2556 68.7512 30.9326 68.3301C29.924 66.9566 29.2358 65.5891 28.9741 64.1085C28.6402 63.0185 28.3993 61.9016 28.295 60.7545C28.2239 60.1901 28.109 59.6348 28.0697 59.0642C27.9871 58.2684 27.9003 57.4734 27.8069 56.6795C27.6774 56.0219 27.5439 55.3654 27.4087 54.7091C27.2723 53.9907 27.163 53.2781 26.8858 52.5999C26.6279 51.934 26.4326 51.2405 26.101 50.6053C25.6193 49.7818 24.8982 49.1059 24.1729 48.4608C23.6209 47.9927 23.0852 47.5083 22.4853 47.088C22.4031 47.0291 22.3207 46.9702 22.2377 46.9119C22.2122 46.8845 22.1854 46.8579 22.1565 46.8323C21.9619 46.6533 21.7046 46.5474 21.4594 46.4304C21.3983 46.4064 21.3439 46.3623 21.272 46.3661C21.1216 46.3626 21.1378 46.5259 21.1776 46.6115C21.233 46.7645 21.3578 46.8541 21.4967 46.9312C21.4968 46.9315 21.4969 46.9319 21.4971 46.9321C21.4635 46.914 21.4763 46.9209 21.4972 46.9324C21.4975 46.9327 21.4976 46.9332 21.4977 46.9336C21.5062 46.9378 21.5111 46.9402 21.5142 46.9417C21.5306 46.9506 21.5462 46.9591 21.5466 46.9593C21.5964 46.9878 21.6491 47.014 21.7018 47.0403C21.7345 47.0582 21.7667 47.0766 21.7975 47.0963C21.8595 47.1351 21.9199 47.1758 21.9806 47.2161C22.0764 47.5109 22.1946 47.8512 22.3232 48.1541C22.5533 48.7545 22.8285 49.3418 22.9865 49.9677C23.0685 50.379 23.0509 50.7637 23.1015 51.311C23.1738 52.2442 23.1717 53.1894 23.0755 54.1367C23.0429 54.4936 22.9356 54.8481 22.9078 55.2052C22.8637 55.7457 22.8686 56.2837 22.8548 56.8225C22.85 57.8614 22.8204 58.9067 22.8907 59.937C22.9683 60.3463 23.1359 60.7292 23.2631 61.1232C23.4046 61.5442 23.5372 61.9688 23.7093 62.3783C24.1821 63.5111 24.8661 64.5431 25.6487 65.5041C26.698 66.8608 27.9458 68.089 29.3937 69.1057C30.0683 69.5836 30.796 69.9988 31.5504 70.3757C31.9694 70.6571 32.4461 70.8684 32.9284 71.0674C31.6665 70.6018 30.4494 70.0595 29.3133 69.3983C26.4989 67.8018 24.2442 65.5584 22.4726 63.0403C21.8876 62.2545 21.3298 61.451 20.8336 60.6133C20.6864 60.2596 20.4764 59.8208 20.3953 59.5986C20.3975 59.5999 20.3996 59.6015 20.4018 59.6029C20.3994 59.6011 20.3973 59.5992 20.395 59.5975C20.3782 59.5515 20.3666 59.5141 20.3627 59.4897C20.1058 58.4801 19.815 57.8226 19.614 57.0057C19.3476 56.0934 19.1933 55.1472 18.8742 54.2522C18.7581 53.906 18.6349 53.605 18.534 53.3348C18.5346 53.2706 18.5349 53.2065 18.5361 53.1423C18.5427 52.4307 18.5303 51.7181 18.584 51.0039C18.6804 49.8951 18.8998 48.7897 19.1263 47.6855C19.3061 46.6923 19.4957 45.832 19.7496 44.9483C19.8856 44.4299 20.0363 43.9125 20.2511 43.4086C20.2905 43.326 20.3284 43.2429 20.3671 43.16C20.5576 43.2836 20.7801 43.3723 21.0057 43.4235C21.5267 43.4844 22.0494 43.0559 22.1744 42.602C22.3529 42.1649 22.4535 41.7108 22.2703 41.2921C22.0727 40.7793 21.7231 40.3036 21.2563 39.9617C21.2749 39.9401 21.2886 39.9171 21.2997 39.8935C21.3273 39.8576 21.3509 39.8195 21.3703 39.7808C21.4241 39.7357 21.4687 39.6826 21.4966 39.621C21.6694 39.1839 21.1415 38.6572 20.6472 38.7712C20.4819 38.8096 20.3189 38.9116 20.2734 39.0677C20.2646 39.0908 20.2582 39.1142 20.2515 39.1374C20.2239 39.1689 20.1986 39.2016 20.1772 39.236C20.1065 39.3431 20.0897 39.4531 20.1082 39.558C19.6282 39.6285 19.2452 40.0108 19.2387 40.4932C19.2303 40.6702 19.2451 40.844 19.2764 41.0142C19.1978 41.6001 19.3892 42.2052 19.772 42.6405C19.7741 42.6435 19.7769 42.647 19.7803 42.651C19.5724 43.1894 19.4464 43.7768 19.3402 44.185C18.9507 45.5251 18.7084 46.8789 18.4533 48.2315C18.248 49.2979 18.087 50.3701 18.0708 51.4361C17.9408 50.9043 17.7948 50.3769 17.6388 49.852C17.3746 49.0873 17.0861 48.146 16.8343 47.1152C16.7409 46.6663 16.6495 46.217 16.5543 45.7687C16.5275 45.6136 16.5004 45.4586 16.4732 45.3036C16.4474 45.1692 16.4255 45.0341 16.4055 44.8988C16.3488 44.3999 16.386 43.8886 16.3682 43.3847C16.3608 43.0544 16.297 42.7316 16.3308 42.3967C16.3549 41.9367 16.489 41.6251 16.6549 41.1114C16.9972 39.9725 17.5976 38.8974 18.2493 37.8538C18.7257 37.0923 19.1041 36.2935 19.5509 35.5216C20.3417 34.3054 21.1504 33.0894 21.7305 31.7911C22.0461 31.073 22.396 30.3552 22.5492 29.6047C22.6909 28.858 22.7653 28.0996 22.6945 27.3623C22.595 26.5609 22.3379 25.7958 22.2111 25.0011C22.1685 24.6467 22.1435 24.2855 22.1673 23.9231C22.3 23.7708 22.4652 23.6219 22.3585 23.3732C22.2995 23.2438 22.1927 23.1221 22.0386 23.0822C22.006 23.0743 21.9748 23.0793 21.9451 23.0972C21.8637 23.1579 21.7639 23.2149 21.7286 23.3083C21.7033 23.401 21.6856 23.4942 21.671 23.5876C21.2634 24.1447 20.7826 24.8733 20.3448 25.4704C19.5102 26.6598 18.6533 27.8431 17.9372 29.0873C17.099 30.6421 16.4687 32.2682 15.9958 33.9126C15.4792 35.7831 15.4321 37.687 15.492 39.5528C15.5284 40.6154 15.6071 41.6725 15.7599 42.7153C15.7501 42.6831 15.7402 42.6508 15.7304 42.6187C15.6581 42.3024 15.5855 41.9863 15.5119 41.6705C15.438 41.3106 15.3678 40.9497 15.2915 40.5904C15.1313 39.7082 14.9221 38.8384 14.6972 37.9734C14.5588 37.2106 14.355 36.4649 14.2048 35.7049C14.179 35.595 14.1556 35.4849 14.1331 35.3747C14.1415 35.3898 14.1501 35.4047 14.1583 35.42C14.1706 35.4912 14.1826 35.5625 14.1957 35.6336C14.2724 35.9727 14.3102 36.3323 14.4843 36.637C14.3977 36.4637 14.3807 36.2677 14.3567 36.0761C14.2872 35.489 14.2754 34.893 14.2463 34.3C14.2299 33.8011 14.1599 33.3263 14.1492 32.8333C14.1477 32.4038 14.2218 31.9709 14.2659 31.5399C14.3742 30.8805 14.4673 30.2195 14.5875 29.5608C14.5941 29.4538 14.6781 29.2124 14.7234 28.9658C15.2151 29.3057 15.8203 29.3129 16.2043 28.7761C16.3221 28.7464 16.4373 28.7076 16.545 28.6493C16.7848 28.4982 16.8885 28.2308 16.9407 27.9916C17.0684 27.4433 16.865 26.8978 16.5086 26.4956C16.4279 26.3962 16.3205 26.3031 16.1963 26.2218C16.2929 25.8444 16.0713 25.4072 15.7195 25.2088C15.6043 25.0609 15.4532 24.9241 15.2409 24.9199C15.115 24.929 15.0134 24.9584 14.9317 25.0013C14.9315 25.001 14.9313 25.0006 14.931 25.0003C14.9312 25.0007 14.9314 25.0011 14.9315 25.0015C14.7184 25.1136 14.6508 25.3226 14.701 25.5396C14.6818 25.5713 14.6653 25.6033 14.6514 25.6355C14.5565 25.6282 14.4602 25.6301 14.3632 25.6452C14.1539 25.7081 13.9895 25.8611 13.8735 26.0357C13.5084 26.2883 13.2945 26.7062 13.403 27.0962C13.4698 27.3559 13.5891 27.6356 13.7255 27.8865C13.8062 28.0784 13.9195 28.256 14.0668 28.4057C14.084 28.4266 14.101 28.4469 14.1178 28.4657C14.1047 28.6652 14.0659 28.8659 14.0385 29.0652C13.881 30.386 13.5991 31.7337 13.7939 33.0313C13.9333 33.8192 14.0212 34.618 14.1561 35.4066C14.1464 35.3853 14.1361 35.3643 14.1264 35.343C13.9452 34.4454 13.8628 33.5404 13.7277 32.6317C13.6114 31.8439 13.0497 30.4375 12.9065 30.1266C12.5538 29.0546 12.386 28.2462 11.8335 27.0837C11.6448 26.7201 11.5157 26.3302 11.3241 25.9676C11.2247 25.7659 11.1289 25.5776 11.0324 25.3912C11.0386 25.378 11.0437 25.3627 11.0473 25.3448C11.0291 25.2016 10.966 25.0743 10.8936 24.95C10.8321 24.772 10.7774 24.6213 10.718 24.3528C10.6772 24.0842 10.7068 23.9884 10.6523 23.6185C10.5786 23.2729 10.4703 22.8802 10.3184 22.3922C10.0233 21.4857 9.72251 20.8093 9.76447 19.9826C9.78035 19.0837 9.82935 18.0108 10.0626 17.3086C10.1853 16.887 10.459 16.5049 10.6075 16.0899C10.7954 15.5088 10.9289 14.909 10.976 14.3174C10.9732 13.5256 10.7537 12.7732 10.6147 12.0078C10.4016 11.2391 10.2803 10.432 9.91553 9.71742C9.17862 8.30958 8.39151 7.22078 7.82292 5.91841C7.66991 5.41831 7.32732 4.94521 6.83429 5.02995C6.7858 5.01537 6.72353 5.03629 6.70235 5.08253C6.64347 5.27556 6.57235 5.46689 6.52913 5.66214C6.34724 6.49518 6.31336 7.33369 6.24717 8.16821C6.14626 9.98977 6.12102 11.8113 6.33791 13.5984C6.41531 14.397 6.57144 15.1793 6.70237 15.9668C6.81632 16.6563 6.953 17.3408 7.15117 18.008C7.24908 18.3708 7.36135 18.7277 7.48452 19.0802C7.41881 18.9911 7.35166 18.9031 7.28202 18.8166C7.07572 18.5659 6.80957 18.3226 6.6117 18.1012C6.23566 17.6044 5.90835 17.0749 5.54655 16.5684C5.32357 16.2381 5.07683 15.9235 4.80253 15.6282C4.77068 15.5919 4.73669 15.5573 4.70208 15.5234C4.51143 15.2736 4.31826 15.0257 4.12135 14.7803C4.02416 14.6039 3.94199 14.4346 3.84725 14.2877C3.45724 13.6501 3.02244 13.0376 2.65926 12.3852C2.58159 12.2404 2.50413 12.0956 2.42654 11.9507C2.06132 11.2618 1.82147 10.5187 1.47888 9.8196C1.10789 9.09162 0.650581 8.40071 0.111873 7.77252C-0.53127 7.06596 -1.24662 6.41755 -1.90025 5.71912C-2.37714 5.23851 -2.82732 4.73294 -3.36208 4.30263C-4.44809 3.45424 -5.77064 2.85407 -7.2274 2.59986C-8.76167 2.33127 -10.2885 1.99554 -11.6801 1.4042C-12.2085 1.172 -12.7605 0.974346 -13.2592 0.69709C-13.5504 0.543776 -13.7716 0.309791 -14.0567 0.149798C-14.1183 0.109929 -14.2041 0.0650079 -14.2828 0.110357ZM32.6961 70.6313C32.4979 70.526 32.2994 70.421 32.0998 70.3177C32.0648 70.2997 32.0302 70.2809 31.9953 70.2627C31.7971 70.1451 31.6072 70.017 31.4305 69.8652C31.0142 69.4839 30.4898 69.0444 30.1256 68.6907C29.7891 68.3186 29.499 67.8824 29.1761 67.4225C28.3177 66.1559 27.6079 64.9242 27.0452 63.5378C26.6589 62.5467 26.2338 61.5662 25.9285 60.5456C25.769 59.8783 25.7143 59.186 25.6148 58.5049C25.6117 58.4813 25.6084 58.4577 25.6054 58.4341C25.6054 58.4576 25.6051 58.481 25.605 58.5044C25.6038 58.6898 25.6029 58.8752 25.6022 59.0606C25.6061 59.455 25.5973 59.8516 25.635 60.2419C25.6901 60.7882 25.8683 61.3046 26.022 61.8246C26.2708 62.6463 26.5337 63.4652 26.8811 64.2503C27.2862 65.1483 27.7861 66.0028 28.3216 66.834C28.7783 67.5432 29.259 68.2448 29.8152 68.89C29.902 68.9817 29.9929 69.07 30.0859 69.1564C29.6833 68.8952 29.2916 68.6216 28.9135 68.3335C27.705 67.4083 26.6727 66.3143 25.7815 65.1312C25.0395 64.2059 24.4228 63.1896 24.0243 62.0842C23.8212 61.4449 23.5612 60.8202 23.4148 60.1637C23.3867 59.949 23.4031 59.3181 23.3978 58.896C23.3936 57.8088 23.3966 56.7197 23.4619 55.6277C23.4981 55.1779 23.6376 54.731 23.6608 54.2807C23.7827 52.9486 23.693 51.6279 23.5761 50.3201C23.4265 49.6096 23.1169 48.9493 22.8608 48.2751C22.7672 48.0855 22.7039 47.8792 22.6356 47.6759C22.7364 47.7497 22.8371 47.8237 22.938 47.8972C23.6453 48.5441 25.2377 49.6888 25.7467 50.8568C26.0387 51.6139 26.3192 52.3778 26.5586 53.1538C26.7622 54.1686 26.94 55.1908 27.1472 56.2053C27.3478 57.4444 27.3778 58.7177 27.5783 59.957C27.7002 60.7124 27.7253 61.4872 27.9074 62.2292C28.0006 62.7604 28.1626 63.2717 28.3077 63.7883C28.4395 64.3704 28.556 64.9589 28.7858 65.5098C29.3732 66.9891 30.3033 68.3099 31.3434 69.5349C31.7018 70.0004 32.1837 70.3449 32.7118 70.6387C32.7066 70.6363 32.7013 70.6338 32.6961 70.6313ZM34.412 71.4627C34.7036 71.5925 34.9973 71.7192 35.2911 71.8456C35.1587 71.8064 35.0274 71.7652 34.8956 71.7248C34.5402 71.549 34.1873 71.3695 33.8336 71.1914C34.0282 71.2813 34.2222 71.3708 34.412 71.4627ZM25.8313 67.3011C25.6073 67.1115 25.3782 66.903 25.1262 66.6612C25.0989 66.6315 25.072 66.6016 25.0458 66.5713C25.3015 66.8201 25.5628 67.0639 25.8313 67.3011ZM20.4557 61.4025C20.5291 61.5917 20.6076 61.7788 20.6977 61.9609C19.7069 61.0725 18.6954 60.2017 17.6235 59.3934C16.4509 58.6269 15.1268 57.9997 13.6695 57.7075C13.0106 57.5912 12.3191 57.6238 11.6412 57.6031C11.1199 57.5935 10.5929 57.6195 10.081 57.5535C10.8438 57.7338 11.6499 57.7782 12.4373 57.8776C13.6031 57.957 14.6355 58.2789 15.6326 58.7425C16.4516 59.1138 17.1631 59.4846 17.873 59.9785C17.6207 59.8677 17.3599 59.772 17.0816 59.7096C16.7016 59.6161 16.3086 59.5591 15.9206 59.4889C15.5323 59.4198 15.1527 59.3128 14.7522 59.2871C14.1437 59.274 13.5282 59.3339 12.9167 59.3543C12.3857 59.3815 11.8566 59.3799 11.3254 59.4097C10.0013 59.561 8.90357 59.438 7.85368 58.9389C6.98316 58.579 6.14452 58.1691 5.29698 57.7735C4.91132 57.6146 4.51871 57.4491 4.10513 57.339C4.35057 57.2601 4.61273 57.1953 4.91267 57.1327C5.43601 57.0185 5.95972 56.9061 6.4828 56.7903C6.83215 56.7104 7.17901 56.5953 7.5349 56.5691C7.73628 56.5415 8.08726 56.6245 8.45764 56.6458C9.20451 56.7099 9.95538 56.7581 10.6911 56.8682C11.6048 56.9942 12.4743 57.2482 13.3478 57.482C13.7976 57.5717 14.2479 57.6582 14.6878 57.7746C15.4934 57.9771 16.1429 58.2537 16.9671 58.668C17.637 58.9778 18.3204 59.3472 18.841 59.7615C19.3956 60.1842 19.7808 60.6864 20.252 61.1862C20.3187 61.2567 20.3866 61.3291 20.4557 61.4025ZM14.7997 47.5787C14.0873 46.7707 13.252 46.0034 12.4262 45.2885C11.5443 44.6533 10.6813 43.9938 9.7647 43.3971C9.13558 43.0599 8.52582 42.6983 7.92498 42.3248C7.42747 42.0357 6.87106 41.7224 6.44368 41.3946C6.14946 41.1762 5.94607 40.8882 5.70107 40.5948C5.41294 40.2385 5.42137 40.2626 5.17905 39.9058C5.07894 39.7408 4.98147 39.5744 4.8826 39.4088C4.39961 38.4007 3.86037 37.4193 3.33121 36.4334C3.2153 36.2053 2.9952 35.8115 2.81573 35.465C3.05936 35.5005 3.29206 35.5669 3.52146 35.6384C4.64084 36.0219 6.44033 36.7861 7.64024 37.5281C8.32351 37.9509 8.94169 38.4468 9.55146 38.9477C10.086 39.3858 10.6142 39.8326 11.0874 40.3253C11.7621 41.0658 12.3278 41.8839 12.9432 42.6659C13.5388 43.4596 14.2444 44.5417 14.7444 45.5376C15.2337 46.5521 15.6566 47.5968 16.0546 48.6498C15.7086 48.0122 15.2819 47.4182 14.85 46.8306C14.3022 46.0625 13.7268 45.3127 13.1317 44.5758C12.2205 43.4956 11.1898 42.5026 10.1991 41.4832C10.0388 41.3192 9.70905 40.9729 9.49231 40.7521C9.63531 40.9259 9.77859 41.0995 9.92219 41.2729C10.5607 42.0425 11.2317 42.7887 11.883 43.5489C13.0429 44.85 14.1568 46.3966 15.1027 47.7093C15.4471 48.1804 15.7253 48.685 15.9681 49.2066C15.631 48.6332 15.2197 48.1006 14.7997 47.5787ZM15.9081 38.0207C15.958 36.9527 16.0437 35.8789 16.2836 34.8127C16.4969 33.8996 16.9298 32.6321 17.3593 31.601C17.7199 30.7479 18.1111 29.8989 18.5997 29.0879C19.2875 27.9829 20.0484 26.9122 20.8111 25.8434C21.0989 25.4418 21.3868 25.0401 21.6695 24.6359C21.6866 24.7804 21.7084 24.9236 21.7317 25.0645C21.8773 25.775 22.083 26.4737 22.1615 27.1994C22.1952 27.9133 22.0982 29.2373 21.7334 30.068C21.3378 31.0411 20.898 32.0057 20.3484 32.9298C19.9245 33.6483 19.4542 34.3473 18.9992 35.052C18.7788 35.3957 18.617 35.7616 18.4283 36.1172C18.088 36.731 17.7394 37.3413 17.3697 37.9434C17.1603 38.297 16.9623 38.6561 16.7829 39.0209C17.2108 36.9738 18.0012 34.8609 18.6371 32.748C18.9728 31.7994 19.2652 30.8426 19.6226 29.8986C19.6303 29.8753 19.687 29.7372 19.6298 29.8575C19.2946 30.4843 19.0093 31.1266 18.7212 31.7682C17.555 34.428 16.5712 37.1614 16.1434 39.9407C16.0797 40.3576 16.0223 40.7758 15.9757 41.1939C15.9204 41.381 15.8739 41.5688 15.8447 41.7577C15.8164 40.5169 15.8565 39.2679 15.9081 38.0207ZM13.1862 34.1073C12.9056 33.7632 12.5828 33.4455 12.2697 33.1298C11.572 32.461 10.907 31.7651 10.2281 31.0805C9.84951 30.7143 9.52462 30.3041 9.12838 29.9528C8.57268 29.4697 7.9528 29.0506 7.34251 28.6238C5.94386 27.6729 4.5195 26.7511 3.08587 25.8408C2.93408 25.7364 2.78203 25.6322 2.62984 25.5281C2.85238 25.7075 3.07007 25.8916 3.30279 26.0606C5.11118 27.4368 7.00455 28.7235 8.82217 30.0891C9.2173 30.3958 9.52237 30.7794 9.86897 31.1276C10.7318 32.0085 11.602 32.8833 12.4828 33.7493C12.7912 34.0825 13.0998 34.4291 13.2849 34.8385C13.3221 34.9134 13.3269 34.9949 13.3189 35.0778C13.3083 35.064 13.2974 35.0492 13.2868 35.0314C12.8939 34.4859 12.4757 33.9421 11.9488 33.4978C11.5485 33.1782 11.1247 32.8823 10.7302 32.5572C10.5642 32.4019 10.4065 32.2255 10.198 32.0892C9.59034 31.6818 8.87318 31.4198 8.20451 31.0961C7.10403 30.5452 5.90792 30.1564 4.7424 29.7145C3.74957 29.3443 2.77837 28.9149 1.94765 28.3148C1.48179 27.948 1.06372 27.5397 0.682586 27.1068C0.0996626 26.4326 -0.507623 25.7748 -1.01485 25.0484C-1.6429 24.2489 -2.43322 23.2423 -2.91304 22.543C-3.11893 22.1231 -3.49473 21.8178 -3.82195 21.481C-4.40874 20.8901 -5.01944 20.3166 -5.7023 19.8138C-5.9811 19.6028 -6.29299 19.4327 -6.60912 19.2677C-6.3556 19.2424 -6.0454 19.3463 -5.70488 19.4388C-5.22364 19.5609 -4.94169 19.6686 -4.40258 19.8432C-3.41308 20.1692 -2.41068 20.4831 -1.49435 20.9377C-0.108957 21.6369 0.933897 22.1728 2.20592 22.9062C4.21352 24.0663 5.77608 25.6944 7.49599 27.1503C8.4017 27.9756 9.05226 28.5745 9.81849 29.4029C10.4091 30.0405 10.9293 30.7297 11.4477 31.418C11.9151 32.0455 12.2285 32.4595 12.6445 33.0794C12.8121 33.3171 12.9783 33.5555 13.1424 33.795C13.1557 33.8992 13.1705 34.0034 13.1862 34.1073ZM7.68841 19.9344C7.55096 19.7088 7.41175 19.4843 7.27155 19.2602C7.53537 19.629 7.77086 19.9878 7.98189 20.347C8.00833 20.408 8.03452 20.4692 8.06152 20.53C7.9381 20.3309 7.8133 20.1326 7.68841 19.9344ZM7.32982 17.0659C7.00868 15.3414 6.7162 13.6055 6.67142 11.8301C6.64583 10.6274 6.68887 9.4171 6.77022 8.20698C6.82338 7.49934 6.90827 6.51673 7.04663 5.99289C7.08233 5.86211 7.12867 5.73292 7.17121 5.60327C7.17368 5.59576 7.17602 5.58819 7.1784 5.58072C7.20613 5.58105 7.23403 5.58122 7.25698 5.58129C7.27326 5.62176 7.29119 5.67087 7.30491 5.70532C7.45562 6.1276 7.69087 6.51466 7.88181 6.91992C8.31252 7.75188 8.99324 8.81365 9.34932 9.49714C9.73233 10.1974 9.83406 11.0035 10.035 11.7686C10.165 12.537 10.3687 13.3064 10.3506 13.9039C10.3343 14.29 10.2234 14.6744 10.1527 15.059C10.1471 15.095 10.0357 15.5176 9.9295 15.7459C9.75614 16.1098 9.53944 16.4644 9.4367 16.8464C9.25245 17.4807 9.18055 18.1261 9.15467 18.7657C9.13954 19.3556 9.08814 19.9543 9.2037 20.5271C9.42767 21.485 9.79323 22.2669 9.97936 23.0448C9.82051 22.7858 9.66134 22.5268 9.55267 22.2433C9.07284 20.98 8.88782 19.6206 8.53864 18.3154C8.30397 17.4744 8.30934 16.5872 8.24432 15.713C8.20328 15.1243 8.02274 14.5658 7.83047 14.018C7.73308 13.7265 7.60329 13.4476 7.48145 13.1658C7.54753 13.3742 7.62207 13.5798 7.68052 13.7909C7.83427 14.3865 7.98757 14.9908 7.96687 15.6211C7.96104 16.1244 7.93755 16.63 7.95564 17.1309C7.98279 17.537 8.06139 17.934 8.14091 18.3295C8.37302 19.3479 8.56105 20.3827 8.85952 21.3821C8.7572 21.1659 8.64812 20.9527 8.53325 20.7425C8.01191 19.5606 7.5826 18.341 7.32982 17.0659ZM-12.2624 1.60779C-11.0691 2.15393 -9.80155 2.57074 -8.48035 2.86374C-7.48499 3.09663 -6.34942 3.24736 -5.60205 3.54573C-4.80268 3.83385 -4.08636 4.26624 -3.4445 4.76307C-2.75781 5.35746 -2.16492 6.03314 -1.53113 6.67249C-0.668664 7.52474 0.0964004 8.23704 0.706398 9.29588C1.17303 10.0326 1.40298 10.8788 1.80439 11.6466C2.02174 12.0884 2.26714 12.5154 2.52787 12.9341C1.57368 11.9225 0.535425 10.9785 -0.54144 10.0735C-2.50892 8.4089 -4.64363 6.88872 -7.01085 5.679C-7.18123 5.58997 -7.352 5.50128 -7.52263 5.41274C-7.35009 5.52701 -7.17756 5.64128 -7.00471 5.75523C-4.93199 7.09952 -2.99585 8.59938 -1.1127 10.1439C0.221444 11.2533 1.51756 12.4068 2.65356 13.6861C3.07128 14.1563 3.47228 14.6378 3.86044 15.128C3.75122 15.0898 3.64814 15.0299 3.55348 14.9836C3.0556 14.7264 2.6737 14.3446 2.27054 13.9882C1.69719 13.4893 1.15841 12.956 0.546457 12.494C-0.374737 11.8479 -1.33463 11.2332 -2.37365 10.7354C-3.11084 10.432 -3.87411 10.1733 -4.6104 9.86735C-5.24964 9.57249 -5.87943 9.26235 -6.52001 8.96909C-7.16715 8.63072 -7.8713 8.1714 -8.67756 7.76656C-9.52311 7.35341 -10.3205 6.75024 -10.9613 6.08227C-11.2348 5.7883 -11.5621 5.53019 -11.7682 5.18927C-12.1473 4.56568 -12.3914 3.87584 -12.697 3.2171C-13.0462 2.44507 -13.3885 1.67072 -13.6652 0.869599C-13.2374 1.16697 -12.7647 1.4086 -12.2624 1.60779Z" fill="white" fill-opacity="0.6"/>
</svg>
