<svg width="340" height="68" viewBox="0 0 340 68" fill="none" xmlns="http://www.w3.org/2000/svg">
<path d="M3.74929 33.7173C6.13954 32.9975 7.6884 31.2872 10.2503 30.7833C11.4477 30.5005 12.5286 30.6202 13.8628 30.8207C15.162 30.9854 16.3511 30.9704 17.6098 31.3495C19.2468 31.8407 20.9029 32.3264 22.5953 32.5519C26.8999 33.0884 31.1648 32.7059 35.186 32.2131C37.5668 32.07 39.4974 31.1281 41.5483 30.4358C44.3572 29.4344 47.156 28.3929 49.6173 27.0003C52.098 25.6008 53.9733 23.7376 55.8816 21.916C57.2475 20.7863 59.0656 19.2187 60.7687 17.9463C62.0634 17.8103 63.3486 17.7011 64.8517 17.5974C66.104 17.5194 67.3626 17.4638 68.6217 17.4088C72.7685 17.279 76.9011 17.0908 81.0373 16.9223C85.9344 16.7944 90.8584 16.78 95.7638 16.6889C95.5866 16.7284 95.4094 16.7679 95.2325 16.8073C92.8822 17.4191 90.4292 17.9123 88.3325 18.8765C87.4663 19.2417 86.7473 19.7499 86.0563 20.2724C85.3472 20.7822 84.6724 21.3162 84.0152 21.863C81.6346 22.2614 79.3161 22.7793 77.0417 23.3703C76.7967 23.4263 76.4538 23.4937 76.0795 23.5724C75.8634 23.2465 75.4014 23.038 74.925 22.9824C74.4251 22.9227 73.8479 22.9086 73.4954 23.1587C73.4392 23.2019 73.3895 23.2446 73.3428 23.2874C72.8661 23.5671 72.7056 24.1358 73.2883 24.5122C73.3774 24.5733 73.4816 24.6263 73.599 24.6691C74.6879 25.0986 76.237 24.8187 76.1968 23.8443C76.1898 23.8064 76.1746 23.7718 76.1618 23.7362C76.8978 23.6367 77.6359 23.542 78.3425 23.3821C80.2045 22.9982 82.0098 22.5144 83.8141 22.0321C83.2321 22.5212 82.662 23.0188 82.0942 23.5181C81.3762 24.1408 80.6715 24.7726 79.9707 25.4071C77.6404 26.1455 75.2935 26.8746 73.1507 27.8469C73.1451 27.8404 73.1387 27.8342 73.1328 27.8278C73.0721 27.7109 72.9714 27.5932 72.8117 27.4776C71.8989 26.9554 70.3578 27.0448 70.3305 27.9627C70.3353 28.0244 70.3477 28.0826 70.3664 28.1376C70.207 28.385 70.1475 28.657 70.2985 28.8927C70.6462 29.2753 71.4264 29.2575 71.8788 29.1439C72.1482 29.0886 72.4377 28.9723 72.6772 28.8169C72.8183 28.7859 72.9468 28.7455 73.0516 28.6945C73.4024 28.5272 73.4143 28.2432 73.249 27.9789C73.9787 27.7669 74.6794 27.5093 75.4024 27.2887C76.9306 26.8549 78.3457 26.2682 79.7171 25.6372C79.5149 25.8208 79.3111 26.0034 79.1097 26.1878C77.9897 27.3159 76.944 28.4879 75.8692 29.6426C74.5226 30.1716 73.0352 30.7406 71.8365 31.3978C71.8284 31.3809 71.8219 31.364 71.8107 31.347C71.6377 31.1766 71.3949 31.0747 71.1353 31.0188C70.5147 30.7727 69.6244 30.7655 69.3674 31.2336C69.2156 31.6043 68.9677 32.1435 69.3798 32.5277C69.5769 32.7796 69.9697 32.8368 70.2944 32.8228C70.52 32.8164 70.7028 32.7476 70.8512 32.6462C71.478 32.6418 72.0493 32.4409 71.9487 31.9242C71.9238 31.8472 71.8937 31.7681 71.8571 31.69C71.867 31.6497 71.8726 31.6091 71.8733 31.5684C73.2317 31.0517 74.5801 30.5107 75.7371 29.7865C74.7643 30.8368 73.9264 31.9605 72.9824 33.0265C72.8665 33.1575 72.7554 33.2911 72.6459 33.4256C72.568 33.4085 72.4882 33.3975 72.4105 33.3894C72.4083 33.389 72.4076 33.3889 72.4038 33.3883C72.0992 33.3496 71.7784 33.33 71.5084 33.4131C71.4854 33.419 71.4647 33.427 71.4435 33.4347C71.1579 33.4336 70.8805 33.4687 70.635 33.5413C70.1293 33.6997 70.112 34.0596 70.4005 34.3396C70.6075 34.6775 71.0836 34.8116 71.5614 34.8117C72.0864 34.9548 72.7445 34.8973 73.062 34.6773C73.3328 34.5001 73.3432 34.1858 73.1201 33.9472C73.1209 33.9042 73.1165 33.8599 73.1021 33.8136C73.0709 33.7335 73.0955 33.6322 72.9938 33.5726C72.9373 33.5287 72.8709 33.4962 72.7999 33.4702C73.7652 32.6383 74.7234 31.7899 75.6788 30.9346C75.3901 31.5275 75.175 32.1486 75.0129 32.7811C74.9166 33.1942 74.8859 33.6213 74.8416 34.045C74.5476 34.0544 74.2674 34.1137 74.0378 34.2296C73.6091 34.4436 73.4769 34.9303 73.7979 35.3168C74.1846 35.6609 74.8094 35.7849 75.349 35.7478C75.3501 35.7477 75.3511 35.7476 75.3519 35.7476C75.4922 35.7378 75.6281 35.7198 75.7511 35.689C75.81 35.6723 75.8654 35.6505 75.9192 35.6265C75.9331 35.6209 75.9461 35.6145 75.9593 35.6085C75.9661 35.6052 75.9732 35.6019 75.9801 35.5985C76.252 35.4691 76.44 35.2532 76.5377 35.0181C76.6198 34.8693 76.563 34.7161 76.442 34.582C76.4116 34.51 76.3694 34.4387 76.312 34.3692C76.038 34.1373 75.6314 34.0269 75.2471 34.019C75.7114 32.8889 75.9382 31.6959 76.1609 30.5025C76.8814 29.857 77.6017 29.2112 78.3255 28.5715C78.9641 27.9615 79.5775 27.4027 80.1894 26.8588C79.7354 27.969 79.4144 29.126 79.2622 30.3119C79.2198 30.7551 79.3166 31.2171 79.3538 31.6692C79.335 31.6679 79.3168 31.6658 79.2976 31.665C78.7089 31.6274 78.1699 31.8244 77.9793 32.2299C77.6689 32.6409 77.8252 33.055 78.4584 33.331C79.2203 33.6448 80.8188 33.5028 80.9582 32.8468C80.9235 32.627 80.7619 32.4042 80.5377 32.2395C80.4435 32.0014 80.1746 31.8321 79.8158 31.7405C79.9183 31.3079 79.9314 30.8486 80.0444 30.4178C80.4728 29.1077 80.621 27.7365 80.7518 26.3622C81.6623 25.5633 82.5844 24.7749 83.5935 23.8839C83.9767 23.5448 84.3264 23.2331 84.6659 22.9341C84.5976 23.2341 84.5523 23.5399 84.5284 23.8484C84.5239 24.8163 84.7352 25.7961 84.9091 26.7741C84.8773 26.779 84.8431 26.781 84.8128 26.7879C84.5584 26.8488 84.3796 27.0106 84.264 27.1967C84.2379 27.1965 84.2124 27.1939 84.1862 27.1952C84.2094 27.2008 84.2332 27.2047 84.2567 27.2091C84.2032 27.2978 84.1626 27.3909 84.1373 27.4819C84.1366 27.5018 84.1401 27.5212 84.142 27.5411C84.1192 27.6617 84.1303 27.7904 84.1794 27.9129C84.4627 28.5193 85.5633 28.6287 86.1834 28.4645C86.4509 28.4045 86.5749 28.2561 86.6141 28.0747C86.7862 27.9166 86.8216 27.6923 86.5967 27.4096C86.5379 27.3464 86.4706 27.2909 86.3983 27.2411C86.1621 26.9391 85.6898 26.7725 85.249 26.7544C85.344 25.4075 85.064 24.0119 84.9984 22.6422C85.7223 22.0116 86.4222 21.4298 87.3044 20.7784C88.0508 20.2101 88.7981 19.6325 89.72 19.2169C91.509 18.3512 93.6553 17.8281 95.6707 17.1966C96.3167 17.015 96.9627 16.83 97.6123 16.65C97.9819 16.6413 98.3519 16.6339 98.7213 16.6241C100.711 16.5763 102.649 16.3477 104.609 16.2042C106.875 15.9421 107.555 15.8333 109.531 15.715C112.929 15.5742 116.338 15.4769 119.734 15.3293C121.059 15.2327 122.379 15.1196 123.693 14.9938C125.967 15.0981 128.56 15.2762 129.892 15.4766C139.569 16.8173 149.237 17.5165 158.896 18.2735C161.166 18.5883 167.323 19.2426 170.916 19.7607C173.519 20.1172 176.122 20.474 178.726 20.8308C178.622 20.8751 178.52 20.9216 178.42 20.9708C177.084 20.6319 175.362 20.8453 173.755 21.1686C172.783 21.2052 171.783 21.2644 170.711 21.3487C168.261 21.2302 165.807 21.0846 163.353 20.6595C160.269 20.0734 157.136 19.1463 153.991 18.7853C152.313 18.5758 150.668 18.6605 149 18.5602C147.097 18.4897 145.179 18.2854 143.268 18.1329C141.029 17.9032 138.841 18.0169 136.671 18.1414C134.526 18.1982 132.402 18.3293 130.348 18.6518C129.052 18.8561 127.706 18.9645 126.46 19.2683C123.027 20.1082 120.58 22.0908 118.213 23.9754C116.57 25.2274 116.136 26.3506 119.406 26.2735C120.824 26.2534 122.237 26.1853 123.576 25.9377C123.877 25.8642 124.175 25.7868 124.473 25.7079C125.409 25.7363 126.342 25.7484 127.273 25.7704C129.659 25.8136 132.025 25.776 134.382 25.6906C137.121 25.4785 139.194 25.282 141.81 25.0226C145.978 24.6892 150.228 24.6076 154.347 24.1296C156.386 23.9248 158.401 23.657 160.407 23.3706C160.718 23.3274 161.028 23.2835 161.337 23.2395C163.009 23.0014 164.69 22.7838 166.311 22.4449C166.865 22.3651 167.421 22.2902 167.981 22.2258C168.478 22.177 168.976 22.1317 169.476 22.0893C169.561 22.0935 169.647 22.0975 169.732 22.1016C167.425 22.7558 164.787 24.0058 163.313 24.6213C161.338 25.4961 159.128 26.0694 157.011 26.7599C155.76 27.0307 154.552 27.3714 153.478 27.8864C152.898 28.1641 151.72 28.5615 150.87 28.9488C148.962 29.8411 146.646 30.957 145.173 31.5451C142.821 32.5065 140.015 32.8427 137.708 33.8581C136.175 34.4975 134.953 35.4376 133.67 36.3072C132.73 36.95 131.687 37.5004 130.714 38.1154C129.237 39.0875 127.756 40.0601 126.393 41.1235C124.801 42.3998 122.639 44.3368 120.73 45.8902C118.705 47.674 116.541 50.2454 114.952 51.7744C114.524 52.1349 114.015 52.4355 113.478 52.7029C113.409 52.7368 113.339 52.7702 113.268 52.8024C113.24 52.8131 113.207 52.8253 113.173 52.8357C112.985 52.9094 112.731 52.9571 112.714 53.1451C112.723 53.2037 112.759 53.2518 112.821 53.2893C113.497 53.8246 116.139 53.4403 117.047 53.423C120.301 53.2342 123.525 52.8748 126.474 52.0245C129.585 50.9635 132.713 49.8141 135.174 48.0659C137.034 46.596 138.172 44.6872 139.222 42.7899C139.63 42.0374 140.259 41.3898 140.795 40.6991C141.801 39.4752 142.783 38.2351 143.853 37.0474C144.348 36.5431 145.053 35.817 145.631 35.2429C146.078 34.9833 146.52 34.7194 146.952 34.4469C148.315 33.7317 149.615 32.9594 150.875 32.1491C152.664 30.8815 154.564 29.4416 156.668 28.5856C157.508 28.2232 158.43 27.9739 159.346 27.7163C158.455 28.5006 157.643 29.3385 156.917 30.22C156.236 31.0451 155.45 31.8226 154.96 32.7414C153.375 35.8178 153.064 39.2814 153.237 42.745C153.225 43.9963 153.213 45.2476 153.202 46.4991C153.177 47.1891 153.208 47.8834 153.298 48.584C153.316 48.7308 153.344 48.8779 153.367 49.0249C153.376 49.08 153.41 49.1253 153.468 49.1606C153.854 49.4287 154.438 49.442 154.877 49.3899C155.04 49.3548 155.215 49.3217 155.301 49.2071C155.336 49.1024 155.375 48.9992 155.404 48.893C155.544 48.3551 155.554 47.9446 155.688 47.6292C156.407 45.7309 157.905 44.1599 159.372 42.6186C160.379 41.5541 161.384 40.4881 162.389 39.4225C163.478 38.0773 164.539 36.717 165.53 35.3217C166.349 34.0962 166.951 32.7635 167.963 31.6326C169.248 30.1901 170.437 29.3716 171.867 28.0191C172.929 26.8285 174.795 25.1642 175.646 24.3563C176.701 23.4449 177.886 22.6304 179.16 21.8946C179.353 21.7859 179.538 21.6659 179.726 21.5497C180.403 21.5156 181.073 21.4613 181.711 21.327C181.844 21.3019 181.983 21.2848 182.122 21.2668C188.183 21.8623 194.243 22.4597 200.295 22.8866C202.928 23.1318 205.544 23.1891 208.174 23.3989C207.951 23.4266 207.736 23.4569 207.5 23.4911C207.367 23.4994 207.234 23.5081 207.102 23.5209C206.66 23.5437 206.211 23.5484 205.8 23.6478C205.596 23.7098 205.395 23.7674 205.195 23.8221C204.982 23.8643 204.77 23.9069 204.559 23.9496C204.048 24.0574 203.541 24.1761 203.041 24.3041C202.919 24.3258 202.796 24.3462 202.673 24.3668C202.138 24.3931 201.559 24.374 200.882 24.416C200.222 24.4603 199.309 24.583 199.028 24.5442C198.903 24.5363 198.626 24.5099 198.893 24.535C198.841 24.5301 198.788 24.5251 198.735 24.5202C198.502 24.495 198.268 24.47 198.035 24.4456C197.597 24.4001 197.049 24.31 197.025 24.2924C197 24.3049 196.215 23.9564 195.847 23.8529C195.789 23.839 195.73 23.8295 195.671 23.8199C195.653 23.6786 195.552 23.5356 195.362 23.4307C194.576 23.0439 193.537 23.0994 192.865 23.4109C191.424 24.5206 193.832 25.1964 195.134 24.9951C195.426 24.9549 195.704 24.8707 195.923 24.734C197.085 25.0749 198.336 25.1024 199.51 25.1478C199.966 25.1294 200.34 25.0839 200.674 25.0366C200.371 25.151 200.073 25.2706 199.784 25.4011C198.051 26.2253 196.711 27.3924 195.279 28.4759C194.919 28.2487 194.404 28.0678 193.837 27.989C192.563 27.8181 191.106 27.8167 190.196 28.4343C189.802 28.6831 189.741 29.1554 190.04 29.5413C190.256 29.7682 190.58 29.9233 190.903 30.0404C191.986 30.3888 193.127 30.301 194.158 30.1521C194.656 30.068 195.15 29.9599 195.569 29.759C195.814 29.6299 196.02 29.4673 196.228 29.3063C196.097 29.9926 196.119 30.7096 196.226 31.4295C196.061 31.4552 195.903 31.4942 195.755 31.5506C195.4 31.6712 195.208 31.9714 195.179 32.2697C195.237 32.4707 195.422 32.6395 195.612 32.7926C196.384 33.4526 197.628 33.794 198.638 33.6172C199.059 33.531 199.527 33.3411 199.578 32.9799C199.592 32.6875 199.384 32.3414 199.022 32.1662C198.913 32.1118 198.784 32.0601 198.641 32.0125C198.184 31.6771 197.579 31.4658 196.983 31.4107C196.703 30.6551 196.486 29.8927 196.449 29.1395C196.465 29.1281 196.48 29.1164 196.495 29.1052C196.833 28.8348 197.159 28.5547 197.483 28.2725C197.729 28.7882 198.659 29.2502 199.654 29.4876C200.161 29.5906 200.85 29.708 201.51 29.7345C202.345 30.0935 203.202 30.2241 203.809 29.7912C204.123 29.3691 203.808 28.8803 203.351 28.4781C203.233 28.3489 203.073 28.2326 202.891 28.128C202.815 28.0777 202.74 28.0298 202.667 27.9861C201.579 27.3961 200.189 26.918 198.953 27.0134C199.601 26.4833 200.285 25.9813 201.07 25.5614C201.625 25.2826 202.217 25.0384 202.829 24.8166C203.343 24.7704 203.849 24.7041 204.324 24.5695C205.224 24.3153 206.022 24.0869 206.876 23.9064C207.217 23.9051 207.601 23.9204 207.986 23.8956C208.027 23.8914 208.068 23.8891 208.109 23.8852C208.336 23.8943 208.564 23.8981 208.789 23.895C209.515 23.8932 210.222 23.8269 210.938 23.7888C211.194 23.8297 211.45 23.8702 211.706 23.9076C216.378 24.6162 221.05 25.4369 225.729 25.9668C228.792 26.2511 231.856 26.537 234.919 26.8206C236.42 26.8999 237.92 26.9729 239.42 27.046C239.535 27.056 239.65 27.064 239.766 27.0711C240.807 27.2269 242.072 27.3634 242.551 27.2021C243.733 27.2623 244.914 27.3244 246.096 27.3933C249.874 27.6863 253.65 27.9575 257.429 28.266C261.316 28.6523 265.177 28.7336 268.958 28.499C271.263 28.3786 273.556 28.2206 275.848 28.0585C276.848 27.9971 277.847 27.9302 278.846 27.8675C279.495 27.8342 280.136 27.7807 280.772 27.7173C281.094 27.6961 281.415 27.6746 281.738 27.6543C284.882 27.4397 288.036 27.2362 291.121 26.8567C290.44 26.9829 289.748 27.1107 289.043 27.2444C284.667 28.1347 280.231 28.9099 275.771 29.6336C273.864 29.8864 271.972 30.171 270.086 30.4699C269.176 30.6025 268.26 30.7291 267.371 30.9059C267.039 30.899 266.713 30.9458 266.419 31.031C266.03 31.1444 265.664 31.286 265.309 31.4423C263.869 31.8739 262.494 32.3897 261.16 32.9544C261.036 32.9834 260.917 33.0098 260.807 33.0316C259.016 33.5284 258.204 33.8133 256.621 34.0441C256.494 34.0626 256.252 34.0939 256.15 34.1087C253.826 34.2767 251.588 34.6624 249.326 34.983C247.625 35.2316 245.883 35.3887 244.201 35.6778C241.113 36.3206 236.036 37.5524 232.197 38.5211C227.737 39.6068 223.922 41.5407 219.723 42.9683C218.166 43.5056 216.472 43.8284 214.833 44.2376C214.49 44.3269 214.15 44.42 213.809 44.5102C213.665 44.5511 213.525 44.6298 213.528 44.7596C213.591 44.9576 213.868 45.0415 214.093 45.1132C214.516 45.2639 214.962 45.3396 215.404 45.4008C216.546 45.5329 217.688 45.6597 218.831 45.7894C221.726 46.1015 224.635 46.5047 227.513 46.574C230.464 46.6199 233.448 46.6196 236.239 46.1435C237.831 45.8344 239.267 45.2774 240.759 44.8131C242.935 44.1115 244.946 43.2021 246.811 42.152C248.721 41.0819 250.539 39.929 252.367 38.7851C253.143 38.2829 253.881 37.747 254.737 37.3157C256.274 36.5176 257.971 35.8904 259.545 35.1305C259.929 34.9537 260.295 34.7852 260.65 34.6223C261.647 34.2534 262.601 33.8325 263.551 33.4072C264.392 33.1669 265.203 32.885 265.993 32.5756C263.223 34.4957 260.6 36.5798 259.052 39.2449C258.116 40.7469 257.927 42.3038 257.505 43.7638C256.594 46.9197 256.04 50.5488 256.031 54.1507C256.026 56.9294 256.609 59.7461 257.189 62.5517C257.369 63.8252 257.498 65.1027 257.867 66.3775C258.036 67.1416 258.096 67.5613 259.313 67.7399C260.506 67.9118 261.074 67.5403 261.332 66.7343C261.552 66.2581 261.9 65.8344 262.18 65.3835C262.728 64.5096 263.382 63.6819 263.871 62.7827C264.6 61.5501 265.131 60.2424 265.715 58.9549C266.365 57.3203 267.17 55.741 267.858 54.1206C268.292 53.028 268.548 51.8826 268.86 50.755C269.244 49.3203 269.656 47.8865 269.748 46.3871C269.875 44.2332 269.617 41.9848 268.595 39.8189C267.957 38.397 267.415 36.9671 267.067 35.52C266.913 34.7722 266.707 34.0263 266.51 33.2796C266.487 33.1953 266.467 33.0988 266.447 32.9979C266.477 32.8178 266.501 32.6357 266.537 32.4569C266.602 32.3959 266.668 32.3348 266.734 32.2739C266.876 32.2136 267.02 32.1553 267.161 32.0933C268.581 31.6588 269.266 31.5696 271.082 31.3172C272.795 31.0584 274.502 30.7854 276.23 30.5615C279.686 30.0667 283.084 29.4442 286.488 28.8417C290.226 28.0792 294.048 27.4749 297.743 26.6367C300.648 25.9474 303.359 24.9612 306.141 24.0903C308.466 23.3851 310.898 22.835 313.116 21.9789C315.427 21.1398 317.529 20.0597 319.636 18.9946C319.731 19.114 319.821 19.235 319.918 19.3535C319.945 19.3856 319.972 19.4177 319.999 19.4496C320.02 20.0419 320.062 20.6369 320.098 21.2296C320.177 22.5702 320.13 23.9339 320.816 25.2715C321.42 26.4554 322.27 27.5857 323.046 28.7262C324.328 30.5582 326.159 32.2365 328.538 33.3303C330.502 34.3676 332.593 35.2336 334.726 35.9907C335.687 36.2859 336.713 36.8714 337.697 36.6418C337.87 36.6103 338.071 36.5338 338.067 36.3793C338.062 35.7993 337.643 35.2292 337.507 34.6494C336.951 32.4931 336.128 30.3027 334.545 28.3191C333.241 26.9822 331.727 25.7525 330.247 24.5182C329.578 23.9798 328.953 23.4128 328.299 22.8656C327.603 22.3549 326.829 21.9107 326.1 21.4298C324.722 20.521 323.294 19.6635 321.95 18.7233C321.85 18.6566 321.717 18.5498 321.571 18.4207C321.606 18.3625 321.602 18.2992 321.544 18.2294C321.494 18.1894 321.441 18.1549 321.388 18.1228C321.995 17.8209 322.601 17.5174 323.21 17.2184C324.518 16.6355 325.758 15.9743 326.778 15.1317C328.063 14.1449 329.021 12.9473 330.014 11.7804C330.414 11.3103 330.806 10.8355 331.192 10.3564C332.55 9.15248 333.832 7.89323 334.771 6.4489C335.666 5.15165 336.286 3.73754 336.961 2.34994C337.593 1.06448 338.245 -0.212311 338.741 -1.54623C339.247 -3.0275 339.743 -4.51156 340.272 -5.98558C340.43 -6.35053 340.589 -6.71512 340.748 -7.07971C341.086 -7.80705 341.438 -8.52893 341.71 -9.27876C341.839 -9.62155 341.97 -9.96396 342.067 -10.3159C342.098 -10.4411 342.187 -10.5847 342.011 -10.6902C341.515 -11.0217 340.757 -11.025 340.23 -10.8965C339.909 -10.828 339.936 -10.5586 339.831 -10.3591C339.649 -9.92673 339.483 -9.4885 339.308 -9.05395C338.768 -7.78455 338.174 -6.53415 337.663 -5.25513C336.974 -3.54542 336.216 -1.85835 335.373 -0.204037C334.655 1.02916 333.786 2.19606 333.052 3.42274C332.243 4.67191 331.466 5.93553 330.641 7.17671C330.121 7.96004 329.377 8.62046 328.661 9.29137C327.536 10.325 326.384 11.3423 325.335 12.4242C323.964 13.9232 322.98 14.9232 320.945 16.0389C320.77 16.1328 320.577 16.2354 320.376 16.3419C319.824 15.8367 319.236 15.3527 318.644 14.8718C316.845 13.3759 315.279 11.7187 313.303 10.3465C312.202 9.60128 310.918 9.047 309.658 8.50321C304.898 6.61144 300.25 4.51166 295.417 2.75641C294.08 2.31594 292.748 1.8577 291.407 1.42729C289.179 0.812877 287.848 0.478765 285.974 -0.129851C284.696 -0.478714 283.194 -1.32086 281.998 -0.780214C281.529 -0.47802 281.857 -0.121125 282.117 0.269828C282.614 1.0922 283.316 1.84128 284.038 2.58176C283.8 2.48491 283.562 2.38841 283.325 2.29074C283.61 2.43874 283.896 2.58458 284.183 2.73019C284.601 3.15721 285.021 3.58269 285.41 4.01909C288.773 7.67801 293.515 10.5573 298.53 12.7711C301.416 13.9977 304.271 15.3351 307.308 16.2606C310.072 17.1147 312.935 17.6573 315.783 17.9003C316.227 17.939 316.672 17.9756 317.116 18.006C316.834 18.1439 316.565 18.274 316.313 18.3932C316.278 18.3986 316.244 18.4042 316.209 18.4096C315.518 18.5157 314.825 18.6185 314.13 18.7189C311.88 18.8344 310.428 18.6952 307.752 18.5448C306.737 18.4847 305.204 18.5252 304.514 18.5432C302.608 18.3358 300.683 18.0333 299.164 17.6722C297.301 17.2433 295.492 16.6249 293.636 16.1705C291.849 15.7511 290.042 15.4248 288.252 15.0134C286.724 14.6498 285.2 14.2759 283.684 13.8676C282.259 13.4729 280.832 13.0654 279.372 12.8377C275.491 12.2936 271.625 12.2532 267.753 11.9494C265.077 11.7689 262.478 11.96 259.833 11.9471C259.919 11.9415 259.225 11.9135 259.039 11.8998C258.065 11.8459 257.091 11.7919 256.117 11.7379C255.119 11.639 254.142 11.5419 253.167 11.4451C252.41 11.3708 251.655 11.3275 250.9 11.2707C250.569 11.2727 250.126 11.2657 250.008 11.512C249.989 11.5401 249.993 11.5693 250.019 11.5995C250.034 11.636 250.066 11.6677 250.103 11.6966C249.953 11.6071 249.81 11.5075 249.678 11.3938C250.31 12.0915 251.376 12.3519 252.315 12.6939C252.428 12.7407 252.542 12.7845 252.655 12.8289C254.03 13.4132 255.411 13.9878 256.753 14.6242C259.088 15.6881 261.4 16.7993 263.806 17.7453C265.777 18.4983 267.839 19.0318 269.886 19.5727C274.089 20.5403 278.284 21.8437 282.562 22.1824C286.3 22.3766 290.062 22.7292 293.775 22.7397C297.085 22.7898 300.242 22.4352 303.311 21.8758C301.046 22.5423 298.87 23.3349 296.6 23.9937C295.454 24.314 294.337 24.4667 292.944 24.6225C290.843 24.9808 288.749 25.3552 286.65 25.7187C284.311 26.1216 280.908 26.7132 279.504 26.8031C275.777 27.07 271.37 27.3843 268.632 27.2967C265.821 27.2009 262.992 26.9349 260.171 26.7384C259.738 26.6903 259.305 26.645 258.872 26.6011C258.624 26.3561 258.379 26.1097 258.13 25.8662C257.486 25.1768 256.737 24.5249 256.197 23.7917C256.029 23.5368 255.847 22.779 255.663 22.2797C255.562 21.9756 255.444 21.6718 255.343 21.3672C255.522 21.3404 255.692 21.2967 255.846 21.234C256.004 21.1694 256.137 21.0859 256.249 20.9897C256.87 20.9188 257.443 20.7382 257.838 20.3972C258.413 19.9008 258.677 19.2218 257.795 18.6365C256.369 17.6177 252.87 17.8572 252.554 19.2591C252.488 19.6959 252.593 20.2272 252.957 20.641C253.148 21.1571 253.436 21.5674 253.808 22.246C254.063 22.6454 254.245 23.0701 254.504 23.4698C254.213 23.3067 253.906 23.1597 253.578 23.0358C253.315 22.943 253.05 22.8701 252.783 22.8117C252.66 22.7233 252.537 22.6355 252.415 22.5462C251.919 22.2173 251.397 21.664 250.997 21.0199C250.601 20.4119 250.247 19.7905 249.719 19.2315C249.981 18.9796 250.062 18.6006 249.951 18.2567C249.797 17.8496 249.246 17.5766 248.747 17.4408C248.206 17.3117 247.559 17.2692 247.155 17.5273C246.614 17.9661 246.618 18.5395 247.168 18.8898C247.205 19.0338 247.304 19.1747 247.466 19.2839C247.639 19.3762 247.842 19.4437 248.057 19.4871C248.143 19.5778 248.227 19.6666 248.3 19.7443C249.007 20.6196 249.553 21.5888 250.557 22.3235C250.702 22.421 250.851 22.5138 250.999 22.6087C250.59 22.5958 250.182 22.5993 249.78 22.6071C249.526 22.5977 249.271 22.5829 249.017 22.5699C248.603 21.3268 245.601 21.133 244.896 21.9944C244.869 22.0066 244.845 22.0207 244.821 22.0345C244.568 22.0688 244.346 22.1454 244.202 22.2751C244.088 22.4808 244.396 22.6274 244.602 22.7581C244.67 22.9402 244.799 23.108 244.97 23.2475C244.974 23.2523 244.981 23.2558 244.986 23.2603C245.362 23.5589 245.927 23.7188 246.462 23.5742C246.584 23.5495 246.629 23.4737 246.661 23.3911C247.205 23.4311 247.907 23.4025 248.407 23.2414C248.906 23.2427 249.363 23.234 249.752 23.2395C250.681 23.2113 251.388 23.1236 251.867 23.1497C253.67 24.2364 255.585 25.2148 257.303 26.3822C257.327 26.4086 257.351 26.435 257.374 26.4612C255.611 26.3064 253.85 26.1956 252.103 26.1687C245.743 26.1326 240.506 25.9584 234.732 25.3008C234.471 25.2742 234.21 25.2503 233.949 25.2251C232.091 24.7897 230.228 24.3753 228.397 23.8372C227.511 23.5824 226.605 23.3711 225.766 22.9999C224.895 22.6312 223.625 21.9811 222.504 21.1593C222.073 20.8441 220.937 19.8463 220.193 19.1633C218.962 18.0836 217.329 17.3394 215.883 16.448C213.505 14.9977 211.325 13.8094 208.952 12.3415C204.529 9.63433 200.19 6.84361 195.763 4.13918C193.418 2.72828 191.031 1.35242 188.85 -0.212253C186.41 -1.76752 184.112 -3.61878 181.183 -4.55507C179.758 -4.96928 178.386 -5.46843 176.426 -6.02489C174.255 -6.49765 172.056 -6.82115 169.871 -7.16473C168.626 -7.31244 166.535 -7.20605 167.47 -6.08723C168.451 -4.97466 169.767 -4.04013 170.924 -3.02592C174.238 -0.258652 177.459 2.57024 180.919 5.23809C182.728 6.64099 184.682 7.92487 186.609 9.23091C190.955 11.8571 195.058 14.8056 199.917 16.8194C202.041 17.7206 204.222 18.5129 206.417 19.2702C207.897 19.7901 209.378 20.3097 210.859 20.8295C212.145 21.216 213.44 21.5796 214.732 21.9473C217.419 22.6953 220.105 23.4575 222.806 24.1529C221.813 24.0492 220.88 23.9502 220.187 23.8719C217.359 23.5819 214.548 22.9567 211.723 22.6456C209.196 22.4354 208.446 22.3938 206.251 22.1156C204.329 21.832 202.408 21.5926 200.484 21.39C197.921 21.1204 195.363 20.7337 192.805 20.3287C190.92 19.9337 189.034 19.5433 187.147 19.1612C184.777 18.659 182.415 18.0749 180.078 17.4288C179.596 17.2956 179.112 17.1629 178.63 17.03C178.298 16.9183 177.966 16.8098 177.633 16.7009C176.125 15.8436 174.664 14.9179 173.438 13.8261C173.411 13.8015 173.388 13.7754 173.361 13.7507C174.016 13.6169 174.525 13.2722 174.324 12.6812C174.31 12.6354 174.293 12.5913 174.272 12.5488C174.387 12.1801 174.176 11.7453 173.444 11.3242C172.313 10.7709 170.906 10.6908 169.818 11.0185C169.461 11.107 169.101 11.2426 168.929 11.4999C168.794 11.7457 169.103 12.0021 169.358 12.1791C169.494 12.2593 169.64 12.3283 169.792 12.3886C169.79 12.486 169.81 12.5919 169.862 12.7099C170.047 13.0478 170.523 13.2513 171.042 13.3655C171.313 13.5328 171.617 13.6621 171.941 13.7331C172.164 13.9066 172.383 14.0671 172.585 14.1974C173.783 14.9868 175.083 15.6696 176.425 16.2901C176.21 16.213 175.996 16.134 175.785 16.0498C173.265 15.1266 171.555 14.2461 169.256 12.9894C168.548 12.6156 167.789 12.2955 167.149 11.8455C166.676 11.5033 166.3 11.2007 165.611 10.7407C165.551 10.6958 165.471 10.6359 165.43 10.6068C165.321 10.5187 165.159 10.4883 165.019 10.4456C164.846 10.3932 164.67 10.3723 164.496 10.3707C164.544 10.2937 164.579 10.2097 164.596 10.1164C164.659 9.85845 164.406 9.59046 164.148 9.39988C163.396 8.85108 162.281 8.66655 161.389 8.80378C160.369 8.9692 159.695 9.79851 160.345 10.6128C160.877 11.1408 161.79 11.3206 162.561 11.4369C163.25 11.5195 163.926 11.4612 164.517 11.2777C164.69 11.3788 164.868 11.4817 164.931 11.5238C165.997 12.3728 167.353 12.9136 168.598 13.5732C169.396 14.0211 170.218 14.438 171.054 14.8322C170.864 14.811 170.674 14.7909 170.484 14.7701C170.482 14.7666 170.481 14.7631 170.478 14.7595C170.303 14.5489 169.997 14.4299 169.698 14.3451C169.6 14.3127 169.499 14.2845 169.401 14.2597C169.348 14.2476 169.294 14.2366 169.24 14.2262C168.192 13.8056 166.383 14.0391 165.934 14.6975C165.841 14.8794 165.828 15.0409 165.87 15.1835C165.756 15.4922 165.823 15.9018 166.236 16.1311C166.318 16.1687 166.402 16.2035 166.489 16.2356C166.502 16.2438 166.511 16.2521 166.525 16.2602C167.266 16.6885 168.215 16.6579 168.986 16.5364C169.348 16.4711 169.729 16.3445 169.979 16.1399C170.133 16.0592 170.272 15.9665 170.389 15.8599C170.502 15.7713 170.59 15.6489 170.641 15.5152C170.853 15.5289 171.065 15.5427 171.277 15.5556C171.395 15.5685 171.513 15.5827 171.632 15.5994C171.68 15.6111 171.724 15.6218 171.775 15.634C171.835 15.6468 171.889 15.6623 171.942 15.6789C172.009 15.7028 172.081 15.7282 172.151 15.7524C172.295 15.8069 172.45 15.8658 172.679 15.9135C172.951 15.9613 173.282 15.9833 173.531 15.9075C174.891 16.4522 176.282 16.943 177.691 17.3822C180.079 18.0853 182.502 18.6473 184.934 19.1687C184.955 19.1732 184.975 19.1771 184.995 19.1814C183.681 19.0318 182.367 18.8896 181.053 18.7177C179.412 18.5604 177.778 18.4954 176.139 18.3739C173.536 18.2042 168.176 17.6676 167.007 17.6157C162.05 17.067 157.09 16.4229 152.136 15.6817C146.956 14.9079 141.773 13.9688 136.588 13.5966C134.487 13.4434 132.405 13.4141 130.346 13.4754C129.625 13.0457 128.95 12.5911 128.313 12.1074C126.192 10.0746 124.623 7.78515 123.155 5.5063C122.304 4.27257 121.469 3.0353 120.678 1.78464C119.583 -0.127599 118.619 -2.06695 117.469 -3.96685C116.883 -5.00313 116.291 -6.04479 115.46 -7.00991C114.381 -8.21748 113.042 -9.29815 111.775 -10.4027C110.807 -11.1734 109.955 -12.024 108.922 -12.7477C107.729 -13.6 106.511 -14.5164 105.014 -15.0066C104.21 -15.2435 103.523 -15.4558 102.944 -15.6366C102.256 -15.8714 101.566 -16.1083 100.908 -16.4012C100.478 -16.6176 100.055 -16.8665 99.5497 -16.8645C99.268 -16.8775 98.9765 -16.8539 98.7583 -16.7407C98.6711 -16.6817 98.6012 -16.5886 98.695 -16.4925C99.0011 -16.0681 99.3601 -15.6607 99.6722 -15.2377C101.384 -12.9672 103.181 -10.7231 104.762 -8.40972C105.67 -7.15608 106.392 -5.85017 107.285 -4.59269C108.367 -2.98023 109.655 -1.43787 110.938 0.103821C112.037 1.43481 113.193 2.74304 114.421 4.01759C115.388 5.07958 116.458 6.08671 117.653 7.01832C118.992 8.09283 120.271 9.22442 121.798 10.15C123.311 11.0557 124.877 11.9224 126.494 12.7103C125.682 12.4633 124.871 12.2142 124.058 11.9702C122.226 11.3156 119.867 10.5178 117.498 9.68016C116.3 9.19594 114.204 8.48 113.433 8.10798C112.321 7.50568 111.137 7.0026 109.936 6.53524C108.859 6.06567 107.767 5.63362 106.649 5.24189C105.933 4.96354 105.174 4.82262 104.433 4.6177C103.719 4.42885 103.029 4.16311 102.353 3.88532C99.3538 2.71375 95.7678 0.476426 92.9678 -0.785925C91.759 -1.3764 90.4564 -1.78684 89.1391 -2.13929C88.259 -2.38647 87.3159 -2.70489 86.1001 -3.14662C84.1055 -3.8319 82.0719 -4.45852 79.9926 -4.84934C78.2266 -5.0707 76.4715 -5.44675 74.7104 -5.70609C72.9454 -5.90504 71.1975 -5.95766 69.4663 -5.91211C69.3765 -5.91161 69.287 -5.91104 69.1973 -5.91054C67.365 -5.9271 65.5338 -5.93081 63.7757 -5.68905C62.6072 -5.57941 60.9297 -5.0946 60.4177 -4.99634C57.6261 -4.40136 55.33 -3.99017 52.6963 -3.9064C50.9437 -3.88887 49.6062 -3.83596 47.7001 -3.9277C47.2443 -4.0179 46.7884 -4.10774 46.3323 -4.19541C46.6161 -4.11635 46.8999 -4.03581 47.1837 -3.95563C47.0891 -3.96127 46.9954 -3.96648 46.8979 -3.97287C46.5325 -4.00183 46.1668 -4.06596 45.8016 -4.12301C45.4379 -4.27617 45.0732 -4.43429 44.672 -4.443C43.2503 -4.43303 43.823 -3.87281 44.8107 -3.64972C45.0645 -3.54443 45.3188 -3.43938 45.574 -3.33636C49.9025 -1.75924 53.6117 0.49165 58.1386 2.2876C60.1725 3.05625 62.3006 3.57812 64.4305 4.03227C65.5507 4.27343 66.6653 4.57941 67.7953 4.75027C68.5205 4.84409 69.2291 4.80181 69.942 4.80402C71.5211 4.81703 73.083 4.76458 74.6334 4.66336C77.1564 4.55325 79.6609 4.38414 82.1773 4.25167C84.9576 4.10077 87.7451 3.97424 90.5478 3.90497C93.7118 3.77665 97.0238 3.83539 100.204 4.81932C101.921 5.35053 103.692 5.70786 105.396 6.27397C107.16 6.89079 108.848 7.66071 110.565 8.36939C112.292 9.05786 114.053 9.67238 115.817 10.2815C118.022 11.0793 120.205 11.9317 122.441 12.6587C123.693 13.0464 124.957 13.3949 126.229 13.7138C125.146 13.8041 124.07 13.9138 123.001 14.0385C121.347 13.9737 119.699 13.9519 118.062 13.984C115.425 14.0453 112.839 14.2881 110.217 14.4042C107.247 14.5309 104.278 14.6629 101.307 14.787C98.0439 14.8397 94.7785 14.8861 91.5156 14.9422C89.9897 14.9727 88.4633 15.0002 86.9377 15.0323C84.9905 15.1641 83.0431 15.2956 81.0959 15.4274C78.3242 15.6454 75.5945 15.9875 72.825 16.2128C69.8181 16.428 66.7637 16.4849 63.7511 16.681C62.9743 16.7351 62.2 16.798 61.4281 16.8673C61.2746 16.8716 61.1214 16.8768 60.968 16.8809C59.9286 16.8776 58.8677 16.7327 57.8282 16.7347C57.034 16.6985 56.2622 16.7571 55.4803 16.7754C54.5173 16.7772 53.5436 16.694 52.5709 16.6159C50.1358 16.4855 47.6713 15.8954 45.223 15.8556C42.4624 15.6919 39.8497 16.0868 37.2441 16.4305C36.1405 16.5464 32.5538 16.7055 30.7225 17.1386C28.9104 17.5558 27.0888 17.9686 25.3938 18.5643C23.888 19.0043 22.3658 19.4231 20.9225 19.9503C19.4506 20.5145 18.1694 21.2986 16.8764 22.0471C15.8805 22.6141 14.798 23.0968 13.7988 23.6587C12.5251 24.4088 11.4951 25.3578 10.2765 26.1544C9.08056 26.8872 7.96998 27.6906 6.85693 28.4927C5.92546 29.1822 4.99711 29.8757 3.91109 30.4344C2.77605 31.0748 1.4593 31.6486 0.76133 32.6123C0.083967 34.0222 2.67426 34.0819 3.74929 33.7173ZM122.864 21.9083C124.155 20.9877 125.658 20.2406 127.381 19.7852C128.454 19.5003 129.636 19.4185 130.763 19.2376C132.814 18.9102 134.935 18.7701 137.086 18.7308C138.245 18.6851 139.514 18.5941 140.592 18.5989C141.881 18.604 143.185 18.728 144.486 18.8506C146.168 18.9953 147.853 19.1661 149.525 19.2196C151.159 19.3166 152.693 19.2294 154.248 19.486C157.24 19.9391 160.336 20.8421 163.435 21.2727C159.369 21.321 156.652 21.5616 152.673 21.1211C151.837 21.0476 150.995 20.9557 150.174 20.9894C148.638 21.1065 147.123 21.2887 145.584 21.3984C143.413 21.5812 141.204 21.6356 139.013 21.7537C137.161 21.8947 135.337 22.1177 133.488 22.2685C131.627 22.3273 129.905 22.7291 128.157 23.0524C125.445 23.5468 122.71 24.0514 119.84 24.1526C120.797 23.3657 121.797 22.6112 122.864 21.9083ZM119.907 25.6834C119.133 25.6949 119.193 25.7241 118.593 25.6947C118.558 25.5363 118.653 25.3273 118.801 25.1221C119.1 25.186 119.368 25.2301 119.479 25.2467C120.245 25.3878 121.009 25.4852 121.773 25.5549C121.166 25.6344 120.543 25.6789 119.907 25.6834ZM124.474 24.9323C124.335 24.9794 124.193 25.0227 124.052 25.0654C122.865 25.0218 121.675 24.9366 120.482 24.7603C123.634 24.626 126.692 24.0523 129.735 23.5253C129.717 23.5295 129.698 23.5333 129.679 23.5377C127.917 23.9604 126.18 24.4231 124.474 24.9323ZM145.153 24.1033C141.562 24.3019 138.04 24.6955 134.478 24.9803C132.599 25.1119 130.731 25.1291 129.438 25.1376C128.494 25.1179 127.548 25.1176 126.601 25.1117C128.2 24.6485 129.795 24.1772 131.47 23.8361C132.867 23.5556 134.306 23.3358 135.804 23.31C137.797 23.2986 140.116 23.3328 142.368 23.2922C144.412 23.2317 146.022 23.5171 148.09 23.6876C148.797 23.7381 149.504 23.7782 150.21 23.8133C148.609 23.9334 146.96 24.0266 145.153 24.1033ZM158.903 22.8619C157.188 23.1019 155.611 23.2986 154.07 23.4631C153.633 23.4621 153.195 23.4546 152.755 23.4333C150.961 23.3344 149.171 23.2854 147.371 23.112C146.186 22.9908 144.998 22.8493 143.817 22.7868C142.72 22.7345 141.643 22.7885 140.555 22.7847C139.071 22.8091 137.792 22.7736 136.189 22.7783C136.47 22.7536 136.75 22.7298 137.028 22.6991C139.575 22.4162 142.205 22.4042 144.796 22.2615C146.228 22.1705 147.654 22.0599 149.073 21.9281C149.851 21.8724 150.65 21.7423 151.274 21.7878C152.7 21.875 154.131 22.1231 155.65 22.145C158.49 22.2284 161.288 22.1216 164.099 22.0712C162.366 22.3323 160.644 22.6199 158.903 22.8619ZM137.494 41.9368C136.943 42.7751 136.497 43.6593 135.931 44.4917C135.199 45.6504 134.068 46.9797 133.21 47.6245C130.682 49.3753 128.323 50.1879 125.201 51.3239C122.359 52.1967 119.259 52.5277 116.104 52.7162C116.481 52.4753 116.815 52.2019 117.126 51.9123C118.675 51.218 120.207 50.5043 121.733 49.7837C124.017 48.6974 126.341 47.6373 128.364 46.2987C130.57 44.8203 132.354 43.0175 134.594 41.5627C136.528 40.2548 138.724 39.1786 140.787 37.9837C139.666 39.2888 138.56 40.6028 137.494 41.9368ZM144.76 33.966C144.27 34.3818 143.811 34.8176 143.362 35.2604C141.326 36.4389 139.242 37.576 137.222 38.7709C135.616 39.652 133.998 40.5282 132.576 41.572C130.578 42.9423 128.956 44.5954 126.939 45.9493C124.995 47.2609 122.826 48.3708 120.72 49.5357C119.785 50.051 118.857 50.5724 117.928 51.0933C118.084 50.923 118.238 50.7517 118.392 50.5816C119.235 49.6941 120.026 48.7742 120.926 47.9216C122.432 46.4009 123.785 45.3728 125.52 43.8969C127.116 42.5439 128.691 41.1694 130.533 40.0021C131.261 39.5373 131.946 39.0346 132.69 38.5836C133.524 38.0553 134.434 37.5955 135.255 37.056C136.802 36.0247 138.786 34.6385 140.155 34.1853C142.396 33.3806 144.949 33.004 147.089 32.0621C147.502 31.8843 147.905 31.6962 148.303 31.5025C147.113 32.3162 145.88 33.0976 144.76 33.966ZM158.607 35.8778C158.129 36.7307 157.88 37.6669 157.621 38.5906C157.328 40.0743 157.074 41.5665 156.839 43.063C156.261 43.6867 155.702 44.3205 155.204 44.9846C155.217 44.2462 155.233 43.508 155.226 42.7678C155.071 39.2375 155.316 36.0254 156.818 33.0054C157.5 31.7772 158.563 30.7268 159.481 29.6148C160.702 28.265 162.135 27.0429 163.78 25.9482C164.159 25.7468 164.484 25.5715 164.7 25.468C165.616 25.0911 166.535 24.7193 167.393 24.2787C168.279 23.8383 169.317 23.2578 169.99 23.039C170.769 22.6989 171.667 22.5446 172.565 22.3935C172.934 22.33 173.434 22.2355 173.934 22.1367C174.186 22.138 174.445 22.1335 174.717 22.1184C174.343 22.349 173.97 22.5805 173.595 22.8102C171.181 24.3814 169.003 26.1365 166.651 27.7571C165.397 28.6115 164.112 29.45 163.012 30.4212C162.078 31.3139 161.316 32.31 160.55 33.2977C159.96 34.1866 159.158 34.9702 158.607 35.8778ZM172.633 25.0923C171.683 25.9403 170.752 26.8008 169.929 27.7279C168.874 28.7629 167.593 29.6959 166.415 30.9456C165.197 32.1636 164.532 33.6586 163.633 35.0348C162.238 36.996 160.795 38.9396 159.048 40.7123C158.463 41.3587 157.847 41.9919 157.243 42.6316C157.796 41.0437 158.297 39.4391 158.935 37.8791C159.229 37.2019 159.534 36.5222 159.983 35.9082C160.47 35.2665 161.06 34.6809 161.579 34.0576C162.459 32.9235 163.729 31.2702 164.599 30.4985C165.85 29.4527 167.281 28.5429 168.634 27.5749C169.863 26.7235 171.02 25.8151 172.197 24.9225C173.263 24.1676 174.351 23.431 175.465 22.7157C174.419 23.4316 173.506 24.2527 172.633 25.0923ZM200.786 28.2592C200.698 28.2689 200.612 28.2821 200.527 28.2988C200.483 28.2627 200.44 28.2191 200.393 28.1634C200.391 28.1556 200.388 28.1478 200.387 28.1399C200.631 28.1946 200.686 28.2092 200.786 28.2592ZM241.921 43.1527C241.75 43.2235 241.272 43.4211 241.124 43.4759C240.007 43.9234 238.835 44.3003 237.665 44.6784C236.703 44.9859 235.757 45.3307 234.705 45.4944C231.86 45.9029 228.843 45.8878 225.851 45.7535C223.234 45.5782 220.607 45.2225 217.985 44.9431C217.912 44.9348 217.839 44.9266 217.766 44.9183C217.791 44.9174 217.815 44.9165 217.84 44.9155C220.593 44.7895 223.285 44.4376 225.917 43.9975C229.685 43.2273 234.63 41.8887 237.67 41.1398C240.348 40.6309 243.085 40.2204 245.638 39.4875C247.834 38.9046 249.766 37.9681 251.9 37.2992C248.661 39.3269 245.567 41.5068 241.921 43.1527ZM249.765 37.0687C248.436 37.5332 247.15 38.054 245.822 38.5201C244.591 38.9145 243.313 39.2446 242.013 39.5329C240.215 39.9042 238.37 40.1867 236.561 40.5388C234.918 40.9357 233.292 41.3622 231.663 41.7818C229.578 42.3153 227.475 42.8207 225.422 43.4053C224.833 43.5443 222.23 44.064 220.997 44.2498C219.535 44.5107 218.219 44.6695 216.809 44.8103C216.753 44.804 216.697 44.7977 216.641 44.7913C218.693 44.2859 220.787 43.8464 222.695 43.1215C225.878 41.8896 228.996 40.5726 232.36 39.5738C237.038 38.347 240.832 37.4966 245.286 36.5042C247.714 36.113 250.214 35.8849 252.65 35.5086C254.395 35.2121 255.379 35.1321 256.683 34.9906C254.369 35.671 251.993 36.2639 249.765 37.0687ZM266.126 34.2754C266.13 35.2166 266.179 36.1635 266.264 37.111C266.457 38.6261 267.147 40.1355 267.42 41.6484C267.712 43.6929 267.871 45.745 267.548 47.7202C267.291 49.241 266.862 50.5204 266.542 51.8189C266.273 53.1549 265.25 55.3824 264.506 56.9451C263.904 58.3906 263.272 59.8257 262.626 61.256C261.947 62.6242 261.067 63.9029 260.192 65.186C260.053 65.4003 259.908 65.6127 259.765 65.8259C259.71 65.587 259.659 65.3478 259.624 65.1087C259.61 64.989 259.591 64.869 259.576 64.7493C260.345 63.2518 260.979 61.7039 261.502 60.1199C262.129 58.2712 262.614 56.3778 262.809 54.4251C263.122 51.7486 263.131 49.0204 263.474 46.3496C263.812 43.9479 264.449 41.9142 264.985 39.7767C265.481 38.1015 265.743 36.1507 266.051 34.5428C266.075 34.4538 266.101 34.3646 266.126 34.2754ZM261.055 55.3096C260.945 56.6374 260.723 57.9449 260.475 59.2454C260.188 60.7687 259.859 62.2827 259.444 63.7735C259.238 62.3913 258.973 61.0085 258.674 59.6239C258.299 57.4568 258.029 55.2864 258.099 53.1512C258.171 49.7672 258.712 46.4619 259.612 43.2441C259.877 42.3217 260.051 41.0281 260.576 39.9303C261.73 37.2239 263.865 34.962 266.147 32.8196C265.894 33.452 265.517 34.0387 265.253 34.6668C264.798 35.7961 264.447 36.9587 264.039 38.1027C263.121 40.508 262.27 42.9401 261.825 45.475C261.411 48.727 261.404 52.0458 261.055 55.3096ZM329.144 29.8391C329.188 29.8847 329.231 29.9304 329.275 29.976C328.781 29.2374 328.264 28.5054 327.781 27.7638C326.489 25.7838 325.124 23.8254 323.766 21.8654C323.536 21.5261 323.295 21.1903 323.05 20.8561C323.063 20.8639 323.075 20.872 323.088 20.8798C324.642 21.9331 326.224 22.7356 327.287 23.7525C328.63 24.8709 329.5 25.5312 330.7 26.589C331.459 27.2698 332.308 27.9122 332.915 28.6718C334.288 30.5223 334.949 32.1438 335.452 34.2049C335.542 34.5953 335.714 35.016 335.846 35.4231C333.245 34.4519 331.172 33.5667 328.778 32.1721C327.244 31.2461 326.319 30.232 325.148 28.8235C324.011 27.3318 322.451 25.6284 321.877 24.2528C321.46 23.3249 321.333 22.3774 321.082 21.4391C320.996 21.0988 320.904 20.7582 320.811 20.4175C323.484 23.6026 326.178 26.7819 329.144 29.8391ZM286.436 2.83694C285.626 1.99597 284.806 1.1566 284.197 0.240848C284.964 0.492821 285.8 0.752218 286.531 0.98497C292.048 2.39361 297.507 4.58002 303.172 7.03622C305.476 8.07168 308.199 9.0613 309.824 9.91224C311.579 10.8594 312.29 11.5573 313.598 12.7193C314.68 13.6644 315.747 14.6203 316.894 15.5225C317.417 15.9149 317.869 16.3072 318.555 16.9333C318.51 16.9482 318.467 16.9641 318.428 16.9824C318.414 16.9902 318.407 16.9992 318.396 17.0074C317.444 16.6896 316.506 16.4174 315.703 16.1576C311.37 14.6694 308.166 12.9962 304.365 11.0546C303.513 10.6059 302.687 10.1311 301.874 9.63938C301.069 9.21159 300.227 8.83263 299.375 8.47514C296.239 7.16587 292.901 6.29401 289.732 5.05266C289.045 4.79149 288.371 4.50709 287.718 4.19248C287.286 3.74274 286.863 3.2886 286.436 2.83694ZM315.511 17.5628C313.781 17.2997 312.055 16.9389 310.367 16.4446C307.994 15.7899 305.561 14.7419 303.241 13.7429C298.29 11.7422 293.291 9.20396 289.676 6.08327C289.327 5.77989 288.993 5.4678 288.668 5.15124C288.837 5.23125 289.009 5.30895 289.187 5.38331C292.206 6.76745 295.451 7.74435 298.471 9.12837C299.215 9.47371 299.297 9.4926 300.166 9.96008C300.781 10.3355 301.392 10.7127 302.041 11.051C304.743 12.5044 307.519 13.8712 310.356 15.1378C312.096 15.8986 314.491 16.7618 316.029 17.1929C316.7 17.3999 317.205 17.59 317.647 17.7432C317.587 17.7735 317.526 17.8032 317.467 17.833C316.815 17.7545 316.162 17.6593 315.511 17.5628ZM257.011 13.7617C256.989 13.7516 256.967 13.7413 256.945 13.7312C255.702 13.1699 254.433 12.6497 253.177 12.1084C257.018 12.5431 260.861 12.7681 264.616 12.5895C266.769 12.5817 269.09 12.7859 271.313 12.9319C274.195 13.1323 276.843 13.2161 279.263 13.6782C281.9 14.2916 284.487 15.1096 287.131 15.6974C288.739 16.0478 290.346 16.4008 291.959 16.7167C293.382 17.0612 294.782 17.4806 296.186 17.8879C298.931 18.6546 301.76 19.1313 304.562 19.3889C305.256 19.41 305.937 19.3715 306.622 19.3524C307.33 19.3589 308.041 19.3853 308.754 19.4225C308.215 19.4854 307.676 19.5488 307.134 19.6066C304.763 19.858 302.292 20.0043 299.908 19.9542C297.281 19.8718 294.631 19.5926 291.998 19.461C289.276 19.2676 287.597 19.1041 285.32 18.8211C283.627 18.586 281.93 18.5027 280.241 18.1919C277.139 17.6114 274.067 16.8329 270.966 16.2449C269.336 15.9589 267.695 15.7493 266.064 15.6438C265.314 15.582 264.568 15.6059 263.816 15.4871C262.554 15.2412 261.321 14.8576 260.077 14.5323C259.062 14.2458 258.035 14.0133 257.011 13.7617ZM296.838 22.1057C293.364 22.3324 289.78 22.0883 286.22 21.823C284.106 21.6932 281.989 21.6387 279.867 21.2388C276.996 20.6719 274.161 19.8988 271.311 19.2175C269.44 18.7419 267.561 18.2535 265.743 17.6135C263.728 16.8639 261.79 15.9763 259.86 15.0782C261.014 15.4365 262.166 15.825 263.354 16.0562C264.524 16.2657 265.694 16.2574 266.864 16.3752C268.092 16.4992 269.413 16.6762 270.672 16.9094C273.738 17.5312 276.782 18.2883 279.857 18.8538C280.969 19.0698 282.084 19.1503 283.198 19.2754C286.029 19.6368 288.861 19.9408 291.687 20.1442C294.868 20.2964 298.08 20.6821 301.238 20.6748C304.143 20.6922 306.968 20.426 309.766 20.098C305.54 20.9509 301.304 21.7906 296.838 22.1057ZM254.939 19.9522C254.935 19.9202 254.934 19.8894 254.932 19.859C254.945 19.8212 254.957 19.7831 254.968 19.7446C255.003 19.6877 255.059 19.639 255.117 19.5973C255.118 19.597 255.118 19.5969 255.118 19.5966C255.075 19.71 255.013 19.8289 254.939 19.9522ZM254.534 24.0455C255.065 24.3583 255.57 24.7324 256.037 25.1341C255.547 24.7637 255.043 24.4026 254.534 24.0455ZM257.244 26.1082C257.115 25.9103 256.977 25.7139 256.829 25.5207C257.025 25.6706 257.221 25.8204 257.415 25.9713C257.667 26.1576 257.92 26.3451 258.174 26.5317C258.006 26.5158 257.84 26.5028 257.673 26.4876C257.534 26.3586 257.389 26.2337 257.244 26.1082ZM258.003 27.4576C257.629 27.4253 257.256 27.3927 256.882 27.3605C257.246 27.3887 257.612 27.4202 258.003 27.4576ZM172.767 -5.88588C175.108 -5.52506 176.089 -5.18363 178.266 -4.44811C180.07 -3.90107 180.876 -3.65903 182.761 -2.50209C185.518 -0.774334 188.073 1.13761 190.881 2.81718C196.367 6.05312 201.652 9.49229 207.093 12.7742C208.635 13.7014 210.173 14.6319 211.777 15.4913C212.822 16.138 213.888 16.7611 214.97 17.3687C215.849 17.8868 216.781 18.3543 217.605 18.9283C217.99 19.1899 218.252 19.48 218.85 19.9933C219.545 20.5695 220.207 21.1724 220.974 21.6962C221.693 22.175 222.461 22.6127 223.264 23.0008C220.692 22.3552 218.274 21.2766 215.811 20.3587C213.349 19.2641 210.752 18.3349 208.491 16.9622C205.055 15.0466 201.725 13.0153 198.565 10.8255C196.439 9.40891 194.323 7.98452 192.285 6.49286C189.624 4.60284 187.206 2.52387 184.445 0.716265C182.735 -0.41484 180.88 -1.39898 179.122 -2.48115C177.494 -3.55582 175.691 -4.43806 173.831 -5.22234C173.024 -5.52929 172.219 -5.84648 171.398 -6.12102C171.854 -6.04189 172.31 -5.96253 172.767 -5.88588ZM219.438 22.6723C217.094 21.9296 213.554 20.869 211.89 20.3598C208.378 19.1033 204.812 17.9515 201.39 16.5107C198.457 15.3126 195.449 13.5534 192.542 11.6588C189.906 10.0412 187.309 8.39129 184.814 6.64302C181.645 4.38474 178.728 1.87791 175.611 -0.774826C173.909 -2.23868 172.143 -3.66475 170.471 -5.14694C170.081 -5.52606 169.673 -5.90727 169.406 -6.33708C169.402 -6.34899 169.395 -6.36088 169.392 -6.37299C169.387 -6.38999 169.388 -6.40692 169.387 -6.42385C169.39 -6.43317 169.393 -6.44272 169.396 -6.45227C169.426 -6.45035 169.454 -6.44839 169.468 -6.44758C169.536 -6.44759 169.556 -6.44581 169.529 -6.44216C169.55 -6.43129 169.618 -6.43089 169.661 -6.42086C169.942 -6.37355 170.222 -6.32458 170.501 -6.27603C171.352 -5.96935 172.175 -5.60383 172.994 -5.23502C174.368 -4.59099 176.029 -3.73071 177.356 -2.80001C179.77 -1.12921 182.419 0.323845 184.785 2.03951C188.363 4.7169 191.838 7.48325 195.65 9.97309C197.605 11.2747 199.512 12.6219 201.519 13.8749C203.913 15.3324 206.331 16.7732 208.829 18.1154C212.34 19.7721 215.976 21.2402 219.661 22.5927C220.866 23.0426 222.116 23.3797 223.372 23.6757C224.921 24.0341 226.472 24.3745 228.026 24.7014C227.375 24.6278 226.305 24.5162 225.123 24.3936C224.533 24.2377 223.996 24.0968 223.571 23.9875C222.196 23.5441 220.818 23.1054 219.438 22.6723ZM177.214 19.3947C180.588 19.5562 182.675 19.8754 186.434 20.3114C188.949 20.692 191.462 21.107 193.977 21.4878C190.034 21.1467 186.131 20.7607 181.712 20.3149C178.431 19.8583 175.151 19.4062 171.87 18.9711C173.652 19.1248 175.434 19.2708 177.214 19.3947ZM138.002 14.6637C141.754 14.9701 147.143 15.9199 151.958 16.6339C152.9 16.7722 153.841 16.9055 154.783 17.0378C150.761 16.711 146.74 16.4331 142.715 16.046C141.941 15.9641 141.166 15.8822 140.391 15.8002C139.088 15.6665 137.785 15.5209 136.481 15.373C135.505 15.1693 134.535 14.9113 133.57 14.671C133.236 14.5792 132.901 14.4934 132.565 14.4085C134.331 14.3996 136.202 14.4625 138.002 14.6637ZM124.503 10.6586C122.342 9.41154 121.03 8.29058 119.249 6.80736C118.196 5.97023 117.245 5.07142 116.39 4.12254C115.414 3.08257 114.434 2.043 113.536 0.969164C112.278 -0.538861 110.99 -2.03987 109.848 -3.59081C108.632 -5.24286 107.651 -6.9611 106.476 -8.6253C105.203 -10.5043 103.742 -12.3226 102.365 -14.168C102.074 -14.5511 101.781 -14.9335 101.484 -15.3146C102.695 -14.9229 103.849 -14.6188 104.582 -14.2686C106.887 -13.02 108.162 -11.7812 109.973 -10.2465C111.575 -8.8415 113.327 -7.47282 114.413 -5.81972C116.039 -3.29663 117.387 -0.705491 118.862 1.85351C119.389 2.6499 119.921 3.44517 120.457 4.23945C119.669 3.3051 118.892 2.36685 118.099 1.43795C117.484 0.71498 116.862 -0.00436718 116.272 -0.736869C116.815 0.156953 117.416 1.03489 118.009 1.91505C120.094 5.02078 122.372 8.24598 125.439 10.955C125.619 11.1511 125.803 11.3456 125.991 11.5379C125.49 11.2496 124.994 10.9572 124.503 10.6586ZM87.28 3.26663C81.2277 3.44459 75.2995 4.07979 69.2163 4.13092C67.9329 4.23232 66.6384 3.77218 65.3531 3.51676C63.4791 3.11455 61.5993 2.68886 59.7974 2.03694C55.456 0.424569 52.2025 -1.64039 47.8244 -3.31329C48.4166 -3.28609 49.0078 -3.27586 49.5975 -3.27108C51.805 -2.64502 54.0188 -2.03758 56.2629 -1.57159C58.4759 -1.13765 60.7325 -0.906846 62.9345 -0.882934C63.8448 -0.864142 64.7118 -0.992462 65.6051 -1.03306C66.8413 -1.00884 68.7541 -1.00004 70.2339 -1.02259C70.2719 -1.02219 70.3092 -1.02421 70.3468 -1.02446C70.9124 -0.963554 71.4782 -0.901109 72.0438 -0.841915C73.7832 -0.644883 75.5223 -0.521141 77.2613 -0.288534C79.6195 0.166733 81.9731 0.707151 84.3467 1.05562C87.7222 1.55371 91.0821 2.22369 94.447 2.8343C94.8509 2.92163 96.0037 3.17796 97.0214 3.40505C93.7361 2.9841 90.4906 3.17119 87.28 3.26663ZM92.065 1.87803C90.012 1.50735 87.963 1.09431 85.9045 0.783216C83.1654 0.391891 80.4467 -0.184729 77.7224 -0.685456C75.8216 -0.913249 73.9246 -1.01428 72.0274 -1.15177C72.0421 -1.15361 72.057 -1.1552 72.0718 -1.15704C72.0447 -1.15556 72.0176 -1.15581 71.9906 -1.15452C71.7369 -1.17304 71.4833 -1.19191 71.2298 -1.21207C69.0482 -1.36326 66.8664 -1.51373 64.6877 -1.63696C65.5708 -1.54259 66.454 -1.44575 67.337 -1.34916C66.5214 -1.4109 65.7058 -1.47171 64.8986 -1.47743C62.9978 -1.3793 61.7395 -1.44622 59.7899 -1.67983C57.2903 -1.90837 55.2225 -2.36682 52.8306 -2.8775C52.2105 -3.00728 51.5904 -3.13629 50.9699 -3.26484C51.0305 -3.26461 51.0913 -3.2645 51.1518 -3.26427C53.9055 -3.2334 56.6003 -3.4473 59.1755 -3.92969C61.2497 -4.24439 62.8833 -4.80062 64.8869 -5.02427C67.0552 -5.21612 67.3023 -5.15406 69.4423 -5.14277C70.8972 -5.14698 72.3484 -5.16473 73.8267 -4.99694C75.4443 -4.83883 77.053 -4.41025 78.6734 -4.22477C79.3753 -4.14916 80.0712 -3.99159 80.7598 -3.81504C82.4256 -3.39219 83.1206 -3.18003 84.933 -2.55769C87.0795 -1.71945 89.4132 -1.35293 91.5016 -0.399785C93.9681 0.685484 96.4445 2.14426 99.0042 3.345C96.7118 2.7614 94.3859 2.29196 92.065 1.87803ZM125.616 13.2083C126.133 13.3497 126.648 13.4961 127.164 13.6411C127.129 13.6436 127.094 13.646 127.059 13.6487C126.577 13.5059 126.095 13.3602 125.616 13.2083ZM2.6961 32.6814C3.68352 31.9529 4.95091 31.4679 6.15669 30.9468C8.39071 29.9864 10.6802 29.0933 13.0655 28.3212C13.2175 28.2692 13.3698 28.2169 13.5214 28.1644C13.3638 28.199 13.206 28.2334 13.0484 28.2684C10.5809 28.7906 8.18228 29.4594 6.06111 30.4611C6.85588 29.9903 7.58354 29.4634 8.30365 28.9298C9.47423 28.0814 10.6606 27.247 11.9132 26.4671C12.9634 25.7673 13.9007 24.9799 14.947 24.2771C15.8674 23.7015 16.9305 23.2658 17.8903 22.7266C18.9103 22.1677 19.9018 21.5838 20.9473 21.0487C22.3786 20.2575 24.1487 19.8459 25.8121 19.3408C28.0286 18.6528 30.2552 17.9621 32.6397 17.543C34.2232 17.2712 35.5046 17.2617 37.2698 17.0919C39.1609 16.9455 40.9646 16.565 42.875 16.4716C45.1406 16.3747 46.6922 16.5036 48.7 16.7781C50.4367 17.0638 52.1663 17.1583 53.8948 17.244C55.3014 17.3426 57.5652 17.126 58.3986 17.1328C58.5142 17.1334 58.63 17.1351 58.7457 17.1372C57.1193 17.3184 55.5042 17.5291 53.9007 17.7631C47.909 18.6124 42.4161 20.365 36.8391 21.9266C33.2703 22.8965 29.6362 23.7629 26.0425 24.6937C20.7654 26.0432 15.5762 27.5473 10.5719 29.2923C10.4377 29.3495 10.3088 29.4124 10.1855 29.4808C10.3431 29.4289 10.5008 29.3771 10.6584 29.3254C17.3587 27.8529 23.1024 26.6824 29.3286 25.0867C33.246 24.0885 37.2049 23.1545 41.0487 22.0403C46.2999 20.546 50.222 19.3693 55.6284 18.5974C57.5335 18.3276 59.0586 18.1297 60.5538 17.9694C58.5518 19.1315 56.7003 20.4239 54.8473 21.7139C52.8038 23.339 50.8932 25.0664 48.5143 26.4285C47.0702 27.3063 45.4158 27.9755 43.7985 28.6744C42.7746 29.0455 41.7516 29.418 40.7272 29.7884C39.1773 30.3094 37.693 30.9261 36.0868 31.3673C35.1288 31.5874 34.1289 31.6118 33.124 31.7419C29.8223 32.1269 26.0741 32.4156 22.3899 31.8523C20.6868 31.568 18.99 30.8859 17.2667 30.5545C16.0475 30.3424 15.4585 30.3711 14.3367 30.2344C13.1606 30.0795 11.9657 29.9099 10.8154 29.9882C8.98317 30.101 7.36684 30.6656 5.96045 31.4183C5.09392 31.9113 4.23381 32.4104 3.3053 32.8426C2.91164 33.0143 2.8636 33.068 2.51571 33.1527C2.51495 33.1497 2.5149 33.1478 2.51389 33.1447C2.5367 32.981 2.60135 32.8278 2.6961 32.6814Z" fill="white" fill-opacity="0.3"/>
</svg>
